<svg xmlns="http://www.w3.org/2000/svg" viewBox="0 0 400 250" width="400" height="250">
  <defs>
    <linearGradient id="bg" x1="0" y1="0" x2="0" y2="1">
      <stop offset="0%" stop-color="#2a3028"/>
      <stop offset="100%" stop-color="#1a2018"/>
    </linearGradient>
    <linearGradient id="bodyGrad" x1="0" y1="0" x2="0" y2="1">
      <stop offset="0%" stop-color="#6a6040"/>
      <stop offset="60%" stop-color="#4a4028"/>
      <stop offset="100%" stop-color="#b8b090"/>
    </linearGradient>
    <linearGradient id="finGrad" x1="0" y1="0" x2="0" y2="1">
      <stop offset="0%" stop-color="#7a7050"/>
      <stop offset="100%" stop-color="#4a4028"/>
    </linearGradient>
    <clipPath id="bodyClip">
      <path d="M 30,115 Q 25,108 30,100 Q 50,85 100,80 Q 180,75 260,78 Q 330,82 370,100 Q 385,110 385,125 Q 385,140 370,150 Q 330,168 260,172 Q 180,175 100,170 Q 50,165 30,150 Q 25,142 30,135 Z"/>
    </clipPath>
  </defs>

  <!-- Background -->
  <rect width="400" height="250" fill="url(#bg)" rx="8"/>

  <!-- Water shimmer -->
  <g opacity="0.08">
    <path d="M 0,180 Q 50,175 100,180 Q 150,185 200,180 Q 250,175 300,180 Q 350,185 400,180" stroke="#ffffff" stroke-width="1.5" fill="none"/>
    <path d="M 0,200 Q 50,195 100,200 Q 150,205 200,200 Q 250,195 300,200 Q 350,205 400,200" stroke="#ffffff" stroke-width="1" fill="none"/>
    <path d="M 0,220 Q 50,215 100,220 Q 150,225 200,220 Q 250,215 300,220 Q 350,225 400,220" stroke="#ffffff" stroke-width="0.8" fill="none"/>
  </g>
  <path d="M 380,108 Q 395,98 400,105 Q 400,125 Q 400,145 395,152 Q 380,142 380,125 Z" fill="url(#finGrad)" opacity="0.85"/>
  <path d="M 180,78 Q 185,65 200,60 Q 250,58 300,62 Q 340,68 365,80 Q 340,76 300,74 Q 250,72 200,73 Q 185,75 180,78 Z" fill="url(#finGrad)" opacity="0.85"/>
  <path d="M 30,115 Q 25,108 30,100 Q 50,85 100,80 Q 180,75 260,78 Q 330,82 370,100 Q 385,110 385,125 Q 385,140 370,150 Q 330,168 260,172 Q 180,175 100,170 Q 50,165 30,150 Q 25,142 30,135 Z" fill="url(#bodyGrad)" stroke="#4a4028" stroke-width="1"/>
  <g clip-path="url(#bodyClip)"><ellipse cx="279.67769091423713" cy="166.78386888975447" rx="8.632171161384026" ry="5.478265942711389" fill="#5a5030" opacity="0.3721234525079215" transform="rotate(-1.3232440096558946 279.67769091423713 166.78386888975447)"/><ellipse cx="130.88142100383317" cy="127.46226866800203" rx="7.9487020285942664" ry="4.021970442505637" fill="#5a5030" opacity="0.2550772606985691" transform="rotate(-9.294508872181556 130.88142100383317 127.46226866800203)"/><ellipse cx="180.9902036452088" cy="113.0609521562443" rx="10.82663913810691" ry="2.40250572112922" fill="#5a5030" opacity="0.3590750490743343" transform="rotate(-9.147902503781093 180.9902036452088 113.0609521562443)"/><ellipse cx="105.37219618930965" cy="159.52942651114716" rx="4.1932524941397835" ry="2.0979339784023434" fill="#5a5030" opacity="0.30388721598626334" transform="rotate(-13.850163674454457 105.37219618930965 159.52942651114716)"/><ellipse cx="208.79968510794745" cy="127.67449647690808" rx="9.265676289271141" ry="5.563619239250482" fill="#5a5030" opacity="0.21848138359591754" transform="rotate(-21.513293816640513 208.79968510794745 127.67449647690808)"/><ellipse cx="193.85164144126955" cy="154.0553305455169" rx="5.849934465677573" ry="2.595462636125592" fill="#5a5030" opacity="0.2943139610777935" transform="rotate(-16.548397253434345 193.85164144126955 154.0553305455169)"/><ellipse cx="158.60366068970393" cy="99.75034122592298" rx="4.859440018950366" ry="4.861504508749084" fill="#5a5030" opacity="0.35886195621767725" transform="rotate(13.30417069848722 158.60366068970393 99.75034122592298)"/><ellipse cx="226.45836647682228" cy="95.92385537712595" rx="6.347087664399865" ry="4.158794537611271" fill="#5a5030" opacity="0.3220054531201328" transform="rotate(-29.323890647558038 226.45836647682228 95.92385537712595)"/><ellipse cx="218.58517793230646" cy="88.2722974607853" rx="10.722793871388564" ry="3.8649432129602417" fill="#5a5030" opacity="0.22928644541018275" transform="rotate(-22.273225626936313 218.58517793230646 88.2722974607853)"/><ellipse cx="158.00362602767643" cy="74.29461270862248" rx="7.10372136983968" ry="4.766475120407565" fill="#5a5030" opacity="0.2912777537599865" transform="rotate(2.3633512312124694 158.00362602767643 74.29461270862248)"/><ellipse cx="295.9333924108524" cy="102.53848399821774" rx="4.309944644667187" ry="3.6989578043138227" fill="#5a5030" opacity="0.2873087183422866" transform="rotate(9.794573065836936 295.9333924108524 102.53848399821774)"/><ellipse cx="120.38302210285897" cy="170.79390344767222" rx="8.25201836811204" ry="3.306528449999128" fill="#5a5030" opacity="0.3691316413260635" transform="rotate(-12.276772380884864 120.38302210285897 170.79390344767222)"/><ellipse cx="177.24161971577098" cy="146.13147228703582" rx="4.606881044793481" ry="3.0151849354982097" fill="#5a5030" opacity="0.24085681930677727" transform="rotate(27.58810004265849 177.24161971577098 146.13147228703582)"/><ellipse cx="257.17249360197405" cy="115.53540278170587" rx="5.794534252701238" ry="3.705792191822076" fill="#5a5030" opacity="0.28294738271171993" transform="rotate(10.109872250249715 257.17249360197405 115.53540278170587)"/><ellipse cx="169.5884595631113" cy="158.43740876920458" rx="7.416659470821652" ry="5.222693143220422" fill="#5a5030" opacity="0.2900576437893495" transform="rotate(3.9697857586094756 169.5884595631113 158.43740876920458)"/><ellipse cx="146.84879239314776" cy="116.20334874122348" rx="9.921359962592856" ry="2.305645301365538" fill="#5a5030" opacity="0.25167147079418567" transform="rotate(-14.360532334561949 146.84879239314776 116.20334874122348)"/><ellipse cx="178.26507780169268" cy="160.6435664677402" rx="6.093406531469651" ry="3.790968132519791" fill="#5a5030" opacity="0.311151831507453" transform="rotate(-9.17274319128461 178.26507780169268 160.6435664677402)"/><ellipse cx="188.75777154374032" cy="168.1792373909911" rx="4.659428258968182" ry="5.9893061601436965" fill="#5a5030" opacity="0.21387831946829328" transform="rotate(26.38458377860791 188.75777154374032 168.1792373909911)"/><ellipse cx="115.132124889236" cy="172.3712665687791" rx="10.308557639251838" ry="2.2276003646552693" fill="#5a5030" opacity="0.31795335901043353" transform="rotate(1.3885981782963839 115.132124889236 172.3712665687791)"/><ellipse cx="213.34743348894838" cy="145.11459719562544" rx="3.355819864455296" ry="4.944085716898274" fill="#5a5030" opacity="0.39998999555925574" transform="rotate(0.9129017585385277 213.34743348894838 145.11459719562544)"/></g>
  <path d="M 30,115 Q 25,108 30,100 Q 50,85 100,80 Q 180,75 260,78 Q 330,82 370,100 Q 385,110 385,125 Q 385,140 370,150 Q 330,168 260,172 Q 180,175 100,170 Q 50,165 30,150 Q 25,142 30,135 Z" fill="none" stroke="#6a6040" stroke-width="0.5" opacity="0.15"/>
  <path d="M 70,135 Q 55,148 52,162 Q 65,155 78,142 Z" fill="url(#finGrad)" opacity="0.75"/>
  <path d="M 200,172 Q 205,182 230,186 Q 280,188 330,182 Q 360,175 370,165 Q 340,170 300,174 Q 250,176 210,174 Z" fill="url(#finGrad)" opacity="0.8"/>
  <path d="M 90,125 Q 150,122 220,125 Q 290,128 340,125" stroke="#6a6040" stroke-width="0.8" fill="none" opacity="0.3" stroke-dasharray="3,3"/>
  <circle cx="60" cy="108" r="7" fill="#1a1a1a"/>
  <circle cx="60" cy="108" r="4.8999999999999995" fill="#2a3a2a"/>
  <circle cx="58" cy="106" r="1.75" fill="#ffffff" opacity="0.8"/>
  <path d="M 28,108 Q 18,112 15,118 Q 18,128 28,132" stroke="#4a4028" stroke-width="1.5" fill="none" stroke-linecap="round"/>
  <path d="M 78,93 Q 75,113 80,133" stroke="#4a4028" stroke-width="1.5" fill="none" opacity="0.5"/>
  <text x="200" y="242" text-anchor="middle" font-family="sans-serif" font-size="11" fill="#ffffff" opacity="0.5" font-weight="600">Aalrutte</text>
</svg>