<svg xmlns="http://www.w3.org/2000/svg" viewBox="0 0 400 250" width="400" height="250">
  <defs>
    <linearGradient id="bg" x1="0" y1="0" x2="0" y2="1">
      <stop offset="0%" stop-color="#0a2040"/>
      <stop offset="100%" stop-color="#001030"/>
    </linearGradient>
    <linearGradient id="bodyGrad" x1="0" y1="0" x2="0" y2="1">
      <stop offset="0%" stop-color="#3a5a7a"/>
      <stop offset="60%" stop-color="#1a3a5a"/>
      <stop offset="100%" stop-color="#d0d8e0"/>
    </linearGradient>
    <linearGradient id="finGrad" x1="0" y1="0" x2="0" y2="1">
      <stop offset="0%" stop-color="#4a6a8a"/>
      <stop offset="100%" stop-color="#1a3a5a"/>
    </linearGradient>
    <clipPath id="bodyClip">
      <path d="M 45,125 Q 35,112 42,98 Q 60,68 120,52 Q 190,40 260,48 Q 320,58 350,88 Q 362,108 362,125 Q 362,142 350,162 Q 320,192 260,202 Q 190,210 120,198 Q 60,182 42,152 Q 35,138 45,125 Z"/>
    </clipPath>
  </defs>

  <!-- Background -->
  <rect width="400" height="250" fill="url(#bg)" rx="8"/>

  <!-- Water shimmer -->
  <g opacity="0.08">
    <path d="M 0,180 Q 50,175 100,180 Q 150,185 200,180 Q 250,175 300,180 Q 350,185 400,180" stroke="#ffffff" stroke-width="1.5" fill="none"/>
    <path d="M 0,200 Q 50,195 100,200 Q 150,205 200,200 Q 250,195 300,200 Q 350,205 400,200" stroke="#ffffff" stroke-width="1" fill="none"/>
    <path d="M 0,220 Q 50,215 100,220 Q 150,225 200,220 Q 250,215 300,220 Q 350,225 400,220" stroke="#ffffff" stroke-width="0.8" fill="none"/>
  </g>
  <path d="M 358,100 Q 380,55 398,38 Q 390,72 385,100 L 385,125 L 385,150 Q 390,178 398,212 Q 380,195 358,150 Q 360,125 358,100 Z" fill="url(#finGrad)" opacity="0.85"/>
  <path d="M 150,52 Q 158,20 180,12 Q 200,18 215,30 Q 225,42 230,52 Q 210,48 190,45 Q 170,45 150,52 Z" fill="url(#finGrad)" opacity="0.85"/>
  <path d="M 45,125 Q 35,112 42,98 Q 60,68 120,52 Q 190,40 260,48 Q 320,58 350,88 Q 362,108 362,125 Q 362,142 350,162 Q 320,192 260,202 Q 190,210 120,198 Q 60,182 42,152 Q 35,138 45,125 Z" fill="url(#bodyGrad)" stroke="#1a3a5a" stroke-width="1"/>
  <g clip-path="url(#bodyClip)"><line x1="90" y1="75" x2="320" y2="75" stroke="#2a4a6a" stroke-width="2" opacity="0.25"/><line x1="90" y1="97" x2="320" y2="97" stroke="#2a4a6a" stroke-width="2" opacity="0.25"/><line x1="90" y1="119" x2="320" y2="119" stroke="#2a4a6a" stroke-width="2" opacity="0.25"/><line x1="90" y1="141" x2="320" y2="141" stroke="#2a4a6a" stroke-width="2" opacity="0.25"/><line x1="90" y1="163" x2="320" y2="163" stroke="#2a4a6a" stroke-width="2" opacity="0.25"/></g>
  <path d="M 45,125 Q 35,112 42,98 Q 60,68 120,52 Q 190,40 260,48 Q 320,58 350,88 Q 362,108 362,125 Q 362,142 350,162 Q 320,192 260,202 Q 190,210 120,198 Q 60,182 42,152 Q 35,138 45,125 Z" fill="none" stroke="#3a5a7a" stroke-width="0.5" opacity="0.15"/>
  <path d="M 95,145 Q 72,168 65,190 Q 82,178 100,158 Z" fill="url(#finGrad)" opacity="0.75"/>
  <path d="M 155,195 Q 158,212 168,218 Q 175,210 170,198 Z" fill="url(#finGrad)" opacity="0.75"/>
  <path d="M 250,202 Q 256,222 270,228 Q 282,222 285,205 Q 272,202 260,202 Z" fill="url(#finGrad)" opacity="0.8"/>
  <path d="M 90,125 Q 150,122 220,125 Q 290,128 340,125" stroke="#3a5a7a" stroke-width="0.8" fill="none" opacity="0.3" stroke-dasharray="3,3"/>
  <circle cx="85" cy="110" r="9" fill="#1a1a1a"/>
  <circle cx="85" cy="110" r="6.3" fill="#2a3a2a"/>
  <circle cx="83" cy="108" r="2.25" fill="#ffffff" opacity="0.8"/>
  <path d="M 42,112 Q 28,118 25,125 Q 28,132 42,138" stroke="#1a3a5a" stroke-width="1.5" fill="none" stroke-linecap="round"/>
  <path d="M 103,95 Q 100,115 105,135" stroke="#1a3a5a" stroke-width="1.5" fill="none" opacity="0.5"/>
  <text x="200" y="242" text-anchor="middle" font-family="sans-serif" font-size="11" fill="#ffffff" opacity="0.5" font-weight="600">Bonito</text>
</svg>