<svg xmlns="http://www.w3.org/2000/svg" viewBox="0 0 400 250" width="400" height="250">
  <defs>
    <linearGradient id="bg" x1="0" y1="0" x2="0" y2="1">
      <stop offset="0%" stop-color="#1a2a3a"/>
      <stop offset="100%" stop-color="#0a1828"/>
    </linearGradient>
    <linearGradient id="bodyGrad" x1="0" y1="0" x2="0" y2="1">
      <stop offset="0%" stop-color="#7a7a5a"/>
      <stop offset="60%" stop-color="#5a5a3a"/>
      <stop offset="100%" stop-color="#d0d0c0"/>
    </linearGradient>
    <linearGradient id="finGrad" x1="0" y1="0" x2="0" y2="1">
      <stop offset="0%" stop-color="#7a7a5a"/>
      <stop offset="100%" stop-color="#5a5a3a"/>
    </linearGradient>
    <clipPath id="bodyClip">
      <path d="M 60,125 Q 40,105 50,85 Q 65,55 120,45 Q 180,35 240,50 Q 300,65 330,100 Q 340,115 340,125 Q 340,135 330,150 Q 300,185 240,200 Q 180,215 120,205 Q 65,195 50,165 Q 40,145 60,125 Z"/>
    </clipPath>
  </defs>

  <!-- Background -->
  <rect width="400" height="250" fill="url(#bg)" rx="8"/>

  <!-- Water shimmer -->
  <g opacity="0.08">
    <path d="M 0,180 Q 50,175 100,180 Q 150,185 200,180 Q 250,175 300,180 Q 350,185 400,180" stroke="#ffffff" stroke-width="1.5" fill="none"/>
    <path d="M 0,200 Q 50,195 100,200 Q 150,205 200,200 Q 250,195 300,200 Q 350,205 400,200" stroke="#ffffff" stroke-width="1" fill="none"/>
    <path d="M 0,220 Q 50,215 100,220 Q 150,225 200,220 Q 250,215 300,220 Q 350,225 400,220" stroke="#ffffff" stroke-width="0.8" fill="none"/>
  </g>
  <path d="M 330,100 Q 355,65 380,50 Q 370,80 365,100 Q 365,125 Q 365,150 370,170 Q 355,185 330,150 Q 335,125 330,100 Z" fill="url(#finGrad)" opacity="0.85"/>
  <path d="M 160,50 Q 170,15 200,10 Q 230,15 250,25 Q 260,35 270,50 Q 240,45 210,42 Q 180,42 160,50 Z" fill="url(#finGrad)" opacity="0.85"/>
  <path d="M 60,125 Q 40,105 50,85 Q 65,55 120,45 Q 180,35 240,50 Q 300,65 330,100 Q 340,115 340,125 Q 340,135 330,150 Q 300,185 240,200 Q 180,215 120,205 Q 65,195 50,165 Q 40,145 60,125 Z" fill="url(#bodyGrad)" stroke="#5a5a3a" stroke-width="1"/>
  <g clip-path="url(#bodyClip)"><ellipse cx="299.53047385549405" cy="90.06832003302738" rx="4.598069160203569" ry="3.1757547446712553" fill="#5a5a3a" opacity="0.3175649547404008" transform="rotate(15.402577556516505 299.53047385549405 90.06832003302738)"/><ellipse cx="191.9691694495221" cy="73.89970450546731" rx="8.30862793181107" ry="4.174719459537297" fill="#5a5a3a" opacity="0.2864596046577534" transform="rotate(-3.243030649011537 191.9691694495221 73.89970450546731)"/><ellipse cx="132.60692052059704" cy="109.63556521783484" rx="5.850144621323358" ry="3.2309218758284035" fill="#5a5a3a" opacity="0.32313208521019865" transform="rotate(-21.329093993328502 132.60692052059704 109.63556521783484)"/><ellipse cx="91.58956645725853" cy="105.20544077405833" rx="7.844876076028234" ry="2.399895232677621" fill="#5a5a3a" opacity="0.2631572693264846" transform="rotate(-5.14689315174844 91.58956645725853 105.20544077405833)"/><ellipse cx="113.97882806734968" cy="81.07066009029981" rx="9.489004084261726" ry="2.3347943892187915" fill="#5a5a3a" opacity="0.350152590749967" transform="rotate(-21.129298522778495 113.97882806734968 81.07066009029981)"/><ellipse cx="127.13755156942713" cy="110.9090258149304" rx="9.253693243213823" ry="5.880067061418261" fill="#5a5a3a" opacity="0.22526913126299472" transform="rotate(27.243633795634842 127.13755156942713 110.9090258149304)"/><ellipse cx="243.7762969916318" cy="86.37701672619599" rx="4.2397286259715115" ry="5.066653974144781" fill="#5a5a3a" opacity="0.38507376520874703" transform="rotate(-27.861603694876603 243.7762969916318 86.37701672619599)"/><ellipse cx="267.36510658174245" cy="178.1599572857504" rx="7.9131962110468175" ry="3.6463501443320956" fill="#5a5a3a" opacity="0.2881775790525566" transform="rotate(4.7192122242706205 267.36510658174245 178.1599572857504)"/><ellipse cx="245.381355201661" cy="144.0152392929915" rx="10.974269758996584" ry="2.8915737243294197" fill="#5a5a3a" opacity="0.24792184679402235" transform="rotate(-0.7032578794825426 245.381355201661 144.0152392929915)"/><ellipse cx="205.0224905779105" cy="75.31571694567086" rx="7.095335997768584" ry="6.1668625781710045" fill="#5a5a3a" opacity="0.3759223632009009" transform="rotate(18.498122540745563 205.0224905779105 75.31571694567086)"/><ellipse cx="268.8235636059662" cy="78.92245510604192" rx="10.226909856894697" ry="3.4102213735455282" fill="#5a5a3a" opacity="0.35187787847510493" transform="rotate(-25.75985244661741 268.8235636059662 78.92245510604192)"/><ellipse cx="251.50915337772537" cy="162.36419785207516" rx="7.151539701457286" ry="5.8326904691939205" fill="#5a5a3a" opacity="0.33321435250152753" transform="rotate(6.20072333512541 251.50915337772537 162.36419785207516)"/><ellipse cx="316.05970746637684" cy="161.05300386481358" rx="8.375501171449278" ry="5.760078995033168" fill="#5a5a3a" opacity="0.30378968495423897" transform="rotate(-3.5359081801825667 316.05970746637684 161.05300386481358)"/><ellipse cx="224.307892680123" cy="89.61560898920393" rx="3.3275115422666204" ry="5.81411665253917" fill="#5a5a3a" opacity="0.21202835499700196" transform="rotate(-7.429649781956428 224.307892680123 89.61560898920393)"/><ellipse cx="301.31390130767676" cy="108.7102677916784" rx="8.896895448512263" ry="5.870028333047291" fill="#5a5a3a" opacity="0.28109841620027265" transform="rotate(6.283330185560857 301.31390130767676 108.7102677916784)"/><ellipse cx="94.07717548538764" cy="99.12868761478671" rx="4.8373427019388835" ry="4.439810647438199" fill="#5a5a3a" opacity="0.2609821565616897" transform="rotate(25.23427139899956 94.07717548538764 99.12868761478671)"/><ellipse cx="81.03928499842482" cy="130.98533921403157" rx="6.266114132281932" ry="4.641321053577792" fill="#5a5a3a" opacity="0.24122848170722375" transform="rotate(-4.801777513355951 81.03928499842482 130.98533921403157)"/><ellipse cx="222.03201630437917" cy="130.29462435973954" rx="5.451442083816691" ry="4.42117746230165" fill="#5a5a3a" opacity="0.3188543243009354" transform="rotate(-14.296770370645799 222.03201630437917 130.29462435973954)"/><ellipse cx="288.8536745935475" cy="149.26630451921483" rx="4.731615371401947" ry="6.801577615503007" fill="#5a5a3a" opacity="0.22167551154292442" transform="rotate(26.805525614378055 288.8536745935475 149.26630451921483)"/><ellipse cx="186.90954997151" cy="169.9280768693958" rx="8.857388622735748" ry="3.5634238811331356" fill="#5a5a3a" opacity="0.23447570272371143" transform="rotate(-8.487337905101878 186.90954997151 169.9280768693958)"/></g>
  <path d="M 60,125 Q 40,105 50,85 Q 65,55 120,45 Q 180,35 240,50 Q 300,65 330,100 Q 340,115 340,125 Q 340,135 330,150 Q 300,185 240,200 Q 180,215 120,205 Q 65,195 50,165 Q 40,145 60,125 Z" fill="none" stroke="#7a7a5a" stroke-width="0.5" opacity="0.15"/>
  <path d="M 100,145 Q 80,165 75,185 Q 90,175 110,160 Z" fill="url(#finGrad)" opacity="0.75"/>
  <path d="M 150,195 Q 155,215 170,225 Q 175,215 165,200 Z" fill="url(#finGrad)" opacity="0.75"/>
  <path d="M 240,200 Q 250,220 270,230 Q 280,225 290,210 Q 275,205 260,200 Z" fill="url(#finGrad)" opacity="0.8"/>
  <path d="M 90,125 Q 150,122 220,125 Q 290,128 340,125" stroke="#7a7a5a" stroke-width="0.8" fill="none" opacity="0.3" stroke-dasharray="3,3"/>
  <circle cx="95" cy="110" r="10" fill="#1a1a1a"/>
  <circle cx="95" cy="110" r="7" fill="#2a3a2a"/>
  <circle cx="93" cy="108" r="2.5" fill="#ffffff" opacity="0.8"/>
  <path d="M 55,115 Q 45,118 42,125 Q 45,132 55,135" stroke="#5a5a3a" stroke-width="1.5" fill="none" stroke-linecap="round"/>
  <path d="M 113,95 Q 110,115 115,135" stroke="#5a5a3a" stroke-width="1.5" fill="none" opacity="0.5"/>
  <text x="200" y="242" text-anchor="middle" font-family="sans-serif" font-size="11" fill="#ffffff" opacity="0.5" font-weight="600">Dorsch</text>
</svg>