<svg xmlns="http://www.w3.org/2000/svg" viewBox="0 0 400 250" width="400" height="250">
  <defs>
    <linearGradient id="bg" x1="0" y1="0" x2="0" y2="1">
      <stop offset="0%" stop-color="#2a4a3a"/>
      <stop offset="100%" stop-color="#183828"/>
    </linearGradient>
    <linearGradient id="bodyGrad" x1="0" y1="0" x2="0" y2="1">
      <stop offset="0%" stop-color="#5a7a5a"/>
      <stop offset="60%" stop-color="#3a5a3a"/>
      <stop offset="100%" stop-color="#c8d0c0"/>
    </linearGradient>
    <linearGradient id="finGrad" x1="0" y1="0" x2="0" y2="1">
      <stop offset="0%" stop-color="#6a8a6a"/>
      <stop offset="100%" stop-color="#3a5a3a"/>
    </linearGradient>
    <clipPath id="bodyClip">
      <path d="M 60,125 Q 40,105 50,85 Q 65,55 120,45 Q 180,35 240,50 Q 300,65 330,100 Q 340,115 340,125 Q 340,135 330,150 Q 300,185 240,200 Q 180,215 120,205 Q 65,195 50,165 Q 40,145 60,125 Z"/>
    </clipPath>
  </defs>

  <!-- Background -->
  <rect width="400" height="250" fill="url(#bg)" rx="8"/>

  <!-- Water shimmer -->
  <g opacity="0.08">
    <path d="M 0,180 Q 50,175 100,180 Q 150,185 200,180 Q 250,175 300,180 Q 350,185 400,180" stroke="#ffffff" stroke-width="1.5" fill="none"/>
    <path d="M 0,200 Q 50,195 100,200 Q 150,205 200,200 Q 250,195 300,200 Q 350,205 400,200" stroke="#ffffff" stroke-width="1" fill="none"/>
    <path d="M 0,220 Q 50,215 100,220 Q 150,225 200,220 Q 250,215 300,220 Q 350,225 400,220" stroke="#ffffff" stroke-width="0.8" fill="none"/>
  </g>
  <path d="M 330,100 Q 355,65 380,50 Q 370,80 365,100 Q 365,125 Q 365,150 370,170 Q 355,185 330,150 Q 335,125 330,100 Z" fill="url(#finGrad)" opacity="0.85"/>
  <path d="M 160,50 Q 170,15 200,10 Q 230,15 250,25 Q 260,35 270,50 Q 240,45 210,42 Q 180,42 160,50 Z" fill="url(#finGrad)" opacity="0.85"/>
  <path d="M 60,125 Q 40,105 50,85 Q 65,55 120,45 Q 180,35 240,50 Q 300,65 330,100 Q 340,115 340,125 Q 340,135 330,150 Q 300,185 240,200 Q 180,215 120,205 Q 65,195 50,165 Q 40,145 60,125 Z" fill="url(#bodyGrad)" stroke="#3a5a3a" stroke-width="1"/>
  <g clip-path="url(#bodyClip)"><circle cx="281.43973893647535" cy="165.15765649325482" r="5.787002940369717" fill="#3a5a3a" opacity="0.5"/><circle cx="102.44719780956667" cy="142.89217376645456" r="5.299688072122066" fill="#3a5a3a" opacity="0.5"/><circle cx="120.67905189916262" cy="119.40125828689582" r="4.714328765275562" fill="#3a5a3a" opacity="0.5"/><circle cx="188.80338553212522" cy="86.91210454307353" r="4.791361268868318" fill="#3a5a3a" opacity="0.5"/><circle cx="134.6736164987092" cy="129.07264583024934" r="4.954034677122282" fill="#3a5a3a" opacity="0.5"/><circle cx="159.76800059243368" cy="88.07188036573176" r="3.2112189491539604" fill="#3a5a3a" opacity="0.5"/><circle cx="214.27084886024898" cy="137.15564319891746" r="4.771598217810148" fill="#3a5a3a" opacity="0.5"/><circle cx="285.2080174054129" cy="124.08853992491204" r="4.4040298598698815" fill="#3a5a3a" opacity="0.5"/><circle cx="238.018172041288" cy="144.48365587853777" r="5.205812366573894" fill="#3a5a3a" opacity="0.5"/><circle cx="139.5130204642568" cy="81.46701921927978" r="5.395313710669319" fill="#3a5a3a" opacity="0.5"/><circle cx="117.27279953147479" cy="125.08505912398797" r="5.850106913389199" fill="#3a5a3a" opacity="0.5"/><circle cx="290.8669373280203" cy="103.82432146544187" r="4.750919849563718" fill="#3a5a3a" opacity="0.5"/><circle cx="134.99373635084743" cy="118.6009636050999" r="5.137192523125252" fill="#3a5a3a" opacity="0.5"/><circle cx="233.4841276941375" cy="169.4177940263779" r="3.0241465992916843" fill="#3a5a3a" opacity="0.5"/><circle cx="247.0611412533628" cy="147.29576475714566" r="3.299071008246185" fill="#3a5a3a" opacity="0.5"/></g>
  <path d="M 60,125 Q 40,105 50,85 Q 65,55 120,45 Q 180,35 240,50 Q 300,65 330,100 Q 340,115 340,125 Q 340,135 330,150 Q 300,185 240,200 Q 180,215 120,205 Q 65,195 50,165 Q 40,145 60,125 Z" fill="none" stroke="#5a7a5a" stroke-width="0.5" opacity="0.15"/>
  <path d="M 100,145 Q 80,165 75,185 Q 90,175 110,160 Z" fill="url(#finGrad)" opacity="0.75"/>
  <path d="M 150,195 Q 155,215 170,225 Q 175,215 165,200 Z" fill="url(#finGrad)" opacity="0.75"/>
  <path d="M 240,200 Q 250,220 270,230 Q 280,225 290,210 Q 275,205 260,200 Z" fill="url(#finGrad)" opacity="0.8"/>
  <path d="M 90,125 Q 150,122 220,125 Q 290,128 340,125" stroke="#5a7a5a" stroke-width="0.8" fill="none" opacity="0.3" stroke-dasharray="3,3"/>
  <circle cx="95" cy="110" r="10" fill="#1a1a1a"/>
  <circle cx="95" cy="110" r="7" fill="#2a3a2a"/>
  <circle cx="93" cy="108" r="2.5" fill="#ffffff" opacity="0.8"/>
  <path d="M 55,115 Q 45,118 42,125 Q 45,132 55,135" stroke="#3a5a3a" stroke-width="1.5" fill="none" stroke-linecap="round"/>
  <path d="M 113,95 Q 110,115 115,135" stroke="#3a5a3a" stroke-width="1.5" fill="none" opacity="0.5"/>
  <text x="200" y="242" text-anchor="middle" font-family="sans-serif" font-size="11" fill="#ffffff" opacity="0.5" font-weight="600">Elritze</text>
</svg>