<svg xmlns="http://www.w3.org/2000/svg" viewBox="0 0 400 250" width="400" height="250">
  <defs>
    <linearGradient id="bg" x1="0" y1="0" x2="0" y2="1">
      <stop offset="0%" stop-color="#2a3a3a"/>
      <stop offset="100%" stop-color="#182828"/>
    </linearGradient>
    <linearGradient id="bodyGrad" x1="0" y1="0" x2="0" y2="1">
      <stop offset="0%" stop-color="#7a7050"/>
      <stop offset="60%" stop-color="#5a5030"/>
      <stop offset="100%" stop-color="#b8b098"/>
    </linearGradient>
    <linearGradient id="finGrad" x1="0" y1="0" x2="0" y2="1">
      <stop offset="0%" stop-color="#7a7058"/>
      <stop offset="100%" stop-color="#5a5030"/>
    </linearGradient>
    <clipPath id="bodyClip">
      <path d="M 60,115 Q 50,105 55,90 Q 70,70 120,58 Q 180,48 250,55 Q 310,65 345,90 Q 358,105 358,125 Q 358,145 345,160 Q 310,185 250,195 Q 180,202 120,192 Q 70,180 55,160 Q 50,145 60,135 Z"/>
    </clipPath>
  </defs>

  <!-- Background -->
  <rect width="400" height="250" fill="url(#bg)" rx="8"/>

  <!-- Water shimmer -->
  <g opacity="0.08">
    <path d="M 0,180 Q 50,175 100,180 Q 150,185 200,180 Q 250,175 300,180 Q 350,185 400,180" stroke="#ffffff" stroke-width="1.5" fill="none"/>
    <path d="M 0,200 Q 50,195 100,200 Q 150,205 200,200 Q 250,195 300,200 Q 350,205 400,200" stroke="#ffffff" stroke-width="1" fill="none"/>
    <path d="M 0,220 Q 50,215 100,220 Q 150,225 200,220 Q 250,215 300,220 Q 350,225 400,220" stroke="#ffffff" stroke-width="0.8" fill="none"/>
  </g>
  <path d="M 352,100 Q 372,75 388,62 Q 382,88 378,105 L 378,145 Q 382,162 388,188 Q 372,175 352,150 Q 354,125 352,100 Z" fill="url(#finGrad)" opacity="0.85"/>
  <path d="M 80,62 Q 85,48 100,42 Q 150,32 220,30 Q 280,35 320,48 Q 340,58 345,70 Q 310,58 250,50 Q 180,45 120,50 Q 90,56 80,62 Z" fill="url(#finGrad)" opacity="0.85"/>
  <path d="M 60,115 Q 50,105 55,90 Q 70,70 120,58 Q 180,48 250,55 Q 310,65 345,90 Q 358,105 358,125 Q 358,145 345,160 Q 310,185 250,195 Q 180,202 120,192 Q 70,180 55,160 Q 50,145 60,135 Z" fill="url(#bodyGrad)" stroke="#5a5030" stroke-width="1"/>
  <g clip-path="url(#bodyClip)"><ellipse cx="146.57330473122926" cy="90.44664017688112" rx="6.727620243557892" ry="2.40504413745809" fill="#5a5030" opacity="0.36917945700437854" transform="rotate(0.5613277386780275 146.57330473122926 90.44664017688112)"/><ellipse cx="220.41588237717258" cy="154.5099748001461" rx="8.642706774091575" ry="3.301608799483568" fill="#5a5030" opacity="0.3449925019995593" transform="rotate(8.605251596753448 220.41588237717258 154.5099748001461)"/><ellipse cx="128.55820226527743" cy="142.71590551830832" rx="8.052037460197823" ry="6.021566969967334" fill="#5a5030" opacity="0.28023986918561833" transform="rotate(-13.30407197314829 128.55820226527743 142.71590551830832)"/><ellipse cx="288.81605139486885" cy="116.78678935029946" rx="8.1643563177816" ry="4.208663059189757" fill="#5a5030" opacity="0.3772269538192106" transform="rotate(7.9182400372812225 288.81605139486885 116.78678935029946)"/><ellipse cx="132.70463412453756" cy="86.06790674237615" rx="4.321981635391538" ry="4.618613562626052" fill="#5a5030" opacity="0.22837020233821814" transform="rotate(-22.75746533714554 132.70463412453756 86.06790674237615)"/><ellipse cx="194.9800849046989" cy="80.32151501175105" rx="7.4932393335153025" ry="2.97589352687193" fill="#5a5030" opacity="0.3526939985623322" transform="rotate(-19.894746422925444 194.9800849046989 80.32151501175105)"/><ellipse cx="276.5733688057077" cy="90.42771239529381" rx="10.887747773198882" ry="6.907181954159519" fill="#5a5030" opacity="0.24169240463916658" transform="rotate(27.62938665695919 276.5733688057077 90.42771239529381)"/><ellipse cx="124.23976714464686" cy="177.5210504701455" rx="3.281120173486932" ry="2.4355608777539755" fill="#5a5030" opacity="0.2243110658296632" transform="rotate(-22.918345274480906 124.23976714464686 177.5210504701455)"/><ellipse cx="162.62970012124023" cy="132.121942303216" rx="10.672068823849662" ry="3.313957661231668" fill="#5a5030" opacity="0.26322300193548154" transform="rotate(-11.491482034626742 162.62970012124023 132.121942303216)"/><ellipse cx="139.45432083600082" cy="96.82628326045977" rx="8.593860335713838" ry="2.9424577883117333" fill="#5a5030" opacity="0.26291443054001706" transform="rotate(-4.962422566092776 139.45432083600082 96.82628326045977)"/><ellipse cx="198.91954234418563" cy="175.56731187767753" rx="4.0923124906202935" ry="2.6082003015812147" fill="#5a5030" opacity="0.31827332179096784" transform="rotate(22.236216104317528 198.91954234418563 175.56731187767753)"/><ellipse cx="197.11681008138066" cy="157.48501246025083" rx="7.171342082535451" ry="3.8357640950104948" fill="#5a5030" opacity="0.3933103844441665" transform="rotate(-5.012385247474121 197.11681008138066 157.48501246025083)"/><ellipse cx="287.29296456250904" cy="107.46126610562706" rx="8.971394736896293" ry="2.743610742881771" fill="#5a5030" opacity="0.3565408782422564" transform="rotate(-8.863486972054524 287.29296456250904 107.46126610562706)"/><ellipse cx="197.80147371844672" cy="97.89748721465017" rx="4.570068416962938" ry="2.5994596620788224" fill="#5a5030" opacity="0.20861912141826167" transform="rotate(18.89265611215354 197.80147371844672 97.89748721465017)"/><ellipse cx="148.81683084610546" cy="177.88998872085654" rx="7.411754844189124" ry="4.596271603452975" fill="#5a5030" opacity="0.2119713550964709" transform="rotate(27.340918754138436 148.81683084610546 177.88998872085654)"/><ellipse cx="100.19879145491286" cy="155.6578012138297" rx="10.324481221622518" ry="6.717684901996191" fill="#5a5030" opacity="0.3952941628232875" transform="rotate(20.82893954611159 100.19879145491286 155.6578012138297)"/><ellipse cx="154.74334999399747" cy="90.9128000855892" rx="4.9034540801618824" ry="3.151570805156706" fill="#5a5030" opacity="0.36291820617254344" transform="rotate(12.537727626276101 154.74334999399747 90.9128000855892)"/><ellipse cx="200.45944871850915" cy="84.189877343627" rx="3.2878204893625034" ry="3.089602783271792" fill="#5a5030" opacity="0.25933626788288244" transform="rotate(-6.301473868394009 200.45944871850915 84.189877343627)"/><ellipse cx="319.15733776620993" cy="117.82882874008862" rx="7.395426858004626" ry="4.50753664304642" fill="#5a5030" opacity="0.2213851235439088" transform="rotate(9.582861919075079 319.15733776620993 117.82882874008862)"/><ellipse cx="227.43080664354102" cy="136.1386292023691" rx="3.706611701095614" ry="5.329622235713733" fill="#5a5030" opacity="0.37455662223819525" transform="rotate(-18.857064099336533 227.43080664354102 136.1386292023691)"/></g>
  <path d="M 60,115 Q 50,105 55,90 Q 70,70 120,58 Q 180,48 250,55 Q 310,65 345,90 Q 358,105 358,125 Q 358,145 345,160 Q 310,185 250,195 Q 180,202 120,192 Q 70,180 55,160 Q 50,145 60,135 Z" fill="none" stroke="#7a7050" stroke-width="0.5" opacity="0.15"/>
  <path d="M 95,140 Q 75,155 70,172 Q 85,165 100,150 Z" fill="url(#finGrad)" opacity="0.75"/>
  <path d="M 90,190 Q 95,205 120,212 Q 180,220 250,215 Q 310,205 340,188 Q 310,195 250,200 Q 180,205 120,200 Q 95,196 90,190 Z" fill="url(#finGrad)" opacity="0.8"/>
  <path d="M 90,125 Q 150,122 220,125 Q 290,128 340,125" stroke="#7a7050" stroke-width="0.8" fill="none" opacity="0.3" stroke-dasharray="3,3"/>
  <circle cx="90" cy="95" r="9" fill="#1a1a1a"/>
  <circle cx="90" cy="95" r="6.3" fill="#2a3a2a"/>
  <circle cx="88" cy="93" r="2.25" fill="#ffffff" opacity="0.8"/>
  <path d="M 55,108 Q 42,112 38,120 Q 42,130 55,132" stroke="#5a5030" stroke-width="1.5" fill="none" stroke-linecap="round"/>
  <path d="M 108,80 Q 105,100 110,120" stroke="#5a5030" stroke-width="1.5" fill="none" opacity="0.5"/>
  <text x="200" y="242" text-anchor="middle" font-family="sans-serif" font-size="11" fill="#ffffff" opacity="0.5" font-weight="600">Flunder</text>
</svg>