<svg xmlns="http://www.w3.org/2000/svg" viewBox="0 0 400 250" width="400" height="250">
  <defs>
    <linearGradient id="bg" x1="0" y1="0" x2="0" y2="1">
      <stop offset="0%" stop-color="#1a3a5a"/>
      <stop offset="100%" stop-color="#0a2848"/>
    </linearGradient>
    <linearGradient id="bodyGrad" x1="0" y1="0" x2="0" y2="1">
      <stop offset="0%" stop-color="#b0a060"/>
      <stop offset="60%" stop-color="#908040"/>
      <stop offset="100%" stop-color="#e0d890"/>
    </linearGradient>
    <linearGradient id="finGrad" x1="0" y1="0" x2="0" y2="1">
      <stop offset="0%" stop-color="#c0b070"/>
      <stop offset="100%" stop-color="#908040"/>
    </linearGradient>
    <clipPath id="bodyClip">
      <path d="M 70,125 Q 55,100 65,70 Q 85,35 140,22 Q 200,15 250,30 Q 300,50 325,90 Q 338,115 338,130 Q 338,145 325,175 Q 300,210 250,230 Q 200,245 140,238 Q 85,225 65,190 Q 55,160 70,135 Z"/>
    </clipPath>
  </defs>

  <!-- Background -->
  <rect width="400" height="250" fill="url(#bg)" rx="8"/>

  <!-- Water shimmer -->
  <g opacity="0.08">
    <path d="M 0,180 Q 50,175 100,180 Q 150,185 200,180 Q 250,175 300,180 Q 350,185 400,180" stroke="#ffffff" stroke-width="1.5" fill="none"/>
    <path d="M 0,200 Q 50,195 100,200 Q 150,205 200,200 Q 250,195 300,200 Q 350,205 400,200" stroke="#ffffff" stroke-width="1" fill="none"/>
    <path d="M 0,220 Q 50,215 100,220 Q 150,225 200,220 Q 250,215 300,220 Q 350,225 400,220" stroke="#ffffff" stroke-width="0.8" fill="none"/>
  </g>
  <path d="M 335,110 Q 358,70 380,55 Q 372,85 368,110 L 368,140 L 368,170 Q 372,195 380,210 Q 358,195 335,155 Q 337,132 335,110 Z" fill="url(#finGrad)" opacity="0.85"/>
  <path d="M 145,22 Q 160,-10 190,-15 Q 220,-8 250,5 Q 270,18 280,30 Q 250,22 220,18 Q 185,17 145,22 Z" fill="url(#finGrad)" opacity="0.85"/>
  <path d="M 70,125 Q 55,100 65,70 Q 85,35 140,22 Q 200,15 250,30 Q 300,50 325,90 Q 338,115 338,130 Q 338,145 325,175 Q 300,210 250,230 Q 200,245 140,238 Q 85,225 65,190 Q 55,160 70,135 Z" fill="url(#bodyGrad)" stroke="#908040" stroke-width="1"/>
  <path d="M 70,125 Q 55,100 65,70 Q 85,35 140,22 Q 200,15 250,30 Q 300,50 325,90 Q 338,115 338,130 Q 338,145 325,175 Q 300,210 250,230 Q 200,245 140,238 Q 85,225 65,190 Q 55,160 70,135 Z" fill="none" stroke="#b0a060" stroke-width="0.5" opacity="0.15"/>
  <path d="M 100,150 Q 78,170 72,195 Q 90,185 108,165 Z" fill="url(#finGrad)" opacity="0.75"/>
  <path d="M 150,225 Q 155,248 170,258 Q 178,248 172,230 Z" fill="url(#finGrad)" opacity="0.75"/>
  <path d="M 230,232 Q 240,255 260,262 Q 275,255 280,238 Q 262,235 245,232 Z" fill="url(#finGrad)" opacity="0.8"/>
  <path d="M 90,125 Q 150,122 220,125 Q 290,128 340,125" stroke="#b0a060" stroke-width="0.8" fill="none" opacity="0.3" stroke-dasharray="3,3"/>
  <circle cx="105" cy="100" r="10" fill="#1a1a1a"/>
  <circle cx="105" cy="100" r="7" fill="#2a3a2a"/>
  <circle cx="103" cy="98" r="2.5" fill="#ffffff" opacity="0.8"/>
  <path d="M 65,112 Q 50,118 48,128 Q 52,138 68,140" stroke="#908040" stroke-width="1.5" fill="none" stroke-linecap="round"/>
  <path d="M 123,85 Q 120,105 125,125" stroke="#908040" stroke-width="1.5" fill="none" opacity="0.5"/>
  <text x="200" y="242" text-anchor="middle" font-family="sans-serif" font-size="11" fill="#ffffff" opacity="0.5" font-weight="600">Goldbrasse</text>
</svg>