<svg xmlns="http://www.w3.org/2000/svg" viewBox="0 0 400 250" width="400" height="250">
  <defs>
    <linearGradient id="bg" x1="0" y1="0" x2="0" y2="1">
      <stop offset="0%" stop-color="#2a4a3a"/>
      <stop offset="100%" stop-color="#1a3028"/>
    </linearGradient>
    <linearGradient id="bodyGrad" x1="0" y1="0" x2="0" y2="1">
      <stop offset="0%" stop-color="#5a7247"/>
      <stop offset="60%" stop-color="#3d5230"/>
      <stop offset="100%" stop-color="#d4c9a0"/>
    </linearGradient>
    <linearGradient id="finGrad" x1="0" y1="0" x2="0" y2="1">
      <stop offset="0%" stop-color="#6b8a55"/>
      <stop offset="100%" stop-color="#3d5230"/>
    </linearGradient>
    <clipPath id="bodyClip">
      <path d="M 40,120 Q 30,108 35,95 Q 50,70 100,60 Q 160,50 230,55 Q 300,60 345,85 Q 360,100 360,125 Q 360,150 345,165 Q 300,190 230,195 Q 160,200 100,190 Q 50,180 35,155 Q 30,142 40,130 Z"/>
    </clipPath>
  </defs>

  <!-- Background -->
  <rect width="400" height="250" fill="url(#bg)" rx="8"/>

  <!-- Water shimmer -->
  <g opacity="0.08">
    <path d="M 0,180 Q 50,175 100,180 Q 150,185 200,180 Q 250,175 300,180 Q 350,185 400,180" stroke="#ffffff" stroke-width="1.5" fill="none"/>
    <path d="M 0,200 Q 50,195 100,200 Q 150,205 200,200 Q 250,195 300,200 Q 350,205 400,200" stroke="#ffffff" stroke-width="1" fill="none"/>
    <path d="M 0,220 Q 50,215 100,220 Q 150,225 200,220 Q 250,215 300,220 Q 350,225 400,220" stroke="#ffffff" stroke-width="0.8" fill="none"/>
  </g>
  <path d="M 355,95 Q 375,60 395,45 Q 385,75 380,95 L 380,125 L 380,155 Q 385,175 395,205 Q 375,190 355,155 Q 358,125 355,95 Z" fill="url(#finGrad)" opacity="0.85"/>
  <path d="M 260,58 Q 270,25 290,18 Q 310,22 330,35 Q 340,50 345,65 Q 320,58 295,55 Q 270,55 260,58 Z" fill="url(#finGrad)" opacity="0.85"/>
  <path d="M 40,120 Q 30,108 35,95 Q 50,70 100,60 Q 160,50 230,55 Q 300,60 345,85 Q 360,100 360,125 Q 360,150 345,165 Q 300,190 230,195 Q 160,200 100,190 Q 50,180 35,155 Q 30,142 40,130 Z" fill="url(#bodyGrad)" stroke="#3d5230" stroke-width="1"/>
  <g clip-path="url(#bodyClip)"><line x1="100" y1="92.30068881875955" x2="105" y2="158.04416909651428" stroke="#4a6038" stroke-width="3" opacity="0.4" stroke-linecap="round"/><line x1="130" y1="86.32925907638041" x2="135" y2="158.4635927866268" stroke="#4a6038" stroke-width="3" opacity="0.4" stroke-linecap="round"/><line x1="160" y1="95.4015433086009" x2="165" y2="146.49985844519708" stroke="#4a6038" stroke-width="3" opacity="0.4" stroke-linecap="round"/><line x1="190" y1="90.9729399755157" x2="195" y2="144.07679121389359" stroke="#4a6038" stroke-width="3" opacity="0.4" stroke-linecap="round"/><line x1="220" y1="101.84813186516239" x2="225" y2="152.07326286475933" stroke="#4a6038" stroke-width="3" opacity="0.4" stroke-linecap="round"/><line x1="250" y1="103.38967955020796" x2="255" y2="141.67027090254064" stroke="#4a6038" stroke-width="3" opacity="0.4" stroke-linecap="round"/><line x1="280" y1="89.82814494341412" x2="285" y2="155.4358719030891" stroke="#4a6038" stroke-width="3" opacity="0.4" stroke-linecap="round"/><line x1="310" y1="87.44205451668641" x2="315" y2="143.31802353897027" stroke="#4a6038" stroke-width="3" opacity="0.4" stroke-linecap="round"/></g>
  <path d="M 40,120 Q 30,108 35,95 Q 50,70 100,60 Q 160,50 230,55 Q 300,60 345,85 Q 360,100 360,125 Q 360,150 345,165 Q 300,190 230,195 Q 160,200 100,190 Q 50,180 35,155 Q 30,142 40,130 Z" fill="none" stroke="#5a7247" stroke-width="0.5" opacity="0.15"/>
  <path d="M 90,140 Q 70,158 65,178 Q 80,170 100,155 Z" fill="url(#finGrad)" opacity="0.75"/>
  <path d="M 155,190 Q 158,210 170,220 Q 176,210 170,195 Z" fill="url(#finGrad)" opacity="0.75"/>
  <path d="M 260,195 Q 268,218 285,225 Q 300,218 310,195 Q 290,192 270,192 Z" fill="url(#finGrad)" opacity="0.8"/>
  <path d="M 90,125 Q 150,122 220,125 Q 290,128 340,125" stroke="#5a7247" stroke-width="0.8" fill="none" opacity="0.3" stroke-dasharray="3,3"/>
  <circle cx="75" cy="112" r="9" fill="#1a1a1a"/>
  <circle cx="75" cy="112" r="6.3" fill="#2a3a2a"/>
  <circle cx="73" cy="110" r="2.25" fill="#ffffff" opacity="0.8"/>
  <path d="M 38,108 Q 22,112 18,125 Q 22,138 38,142" stroke="#3d5230" stroke-width="1.5" fill="none" stroke-linecap="round"/>
  <path d="M 93,97 Q 90,117 95,137" stroke="#3d5230" stroke-width="1.5" fill="none" opacity="0.5"/>
  <text x="200" y="242" text-anchor="middle" font-family="sans-serif" font-size="11" fill="#ffffff" opacity="0.5" font-weight="600">Hecht</text>
</svg>