<svg xmlns="http://www.w3.org/2000/svg" viewBox="0 0 400 250" width="400" height="250">
  <defs>
    <linearGradient id="bg" x1="0" y1="0" x2="0" y2="1">
      <stop offset="0%" stop-color="#2a4a3a"/>
      <stop offset="100%" stop-color="#1a3028"/>
    </linearGradient>
    <linearGradient id="bodyGrad" x1="0" y1="0" x2="0" y2="1">
      <stop offset="0%" stop-color="#7a8a5a"/>
      <stop offset="60%" stop-color="#5a6a3a"/>
      <stop offset="100%" stop-color="#c8c0a0"/>
    </linearGradient>
    <linearGradient id="finGrad" x1="0" y1="0" x2="0" y2="1">
      <stop offset="0%" stop-color="#8a9a6a"/>
      <stop offset="100%" stop-color="#5a6a3a"/>
    </linearGradient>
    <clipPath id="bodyClip">
      <path d="M 60,125 Q 40,105 50,85 Q 65,55 120,45 Q 180,35 240,50 Q 300,65 330,100 Q 340,115 340,125 Q 340,135 330,150 Q 300,185 240,200 Q 180,215 120,205 Q 65,195 50,165 Q 40,145 60,125 Z"/>
    </clipPath>
  </defs>

  <!-- Background -->
  <rect width="400" height="250" fill="url(#bg)" rx="8"/>

  <!-- Water shimmer -->
  <g opacity="0.08">
    <path d="M 0,180 Q 50,175 100,180 Q 150,185 200,180 Q 250,175 300,180 Q 350,185 400,180" stroke="#ffffff" stroke-width="1.5" fill="none"/>
    <path d="M 0,200 Q 50,195 100,200 Q 150,205 200,200 Q 250,195 300,200 Q 350,205 400,200" stroke="#ffffff" stroke-width="1" fill="none"/>
    <path d="M 0,220 Q 50,215 100,220 Q 150,225 200,220 Q 250,215 300,220 Q 350,225 400,220" stroke="#ffffff" stroke-width="0.8" fill="none"/>
  </g>
  <path d="M 330,100 Q 355,65 380,50 Q 370,80 365,100 Q 365,125 Q 365,150 370,170 Q 355,185 330,150 Q 335,125 330,100 Z" fill="url(#finGrad)" opacity="0.85"/>
  <path d="M 160,50 Q 170,15 200,10 Q 230,15 250,25 Q 260,35 270,50 Q 240,45 210,42 Q 180,42 160,50 Z" fill="url(#finGrad)" opacity="0.85"/>
  <path d="M 60,125 Q 40,105 50,85 Q 65,55 120,45 Q 180,35 240,50 Q 300,65 330,100 Q 340,115 340,125 Q 340,135 330,150 Q 300,185 240,200 Q 180,215 120,205 Q 65,195 50,165 Q 40,145 60,125 Z" fill="url(#bodyGrad)" stroke="#5a6a3a" stroke-width="1"/>
  <g clip-path="url(#bodyClip)"><circle cx="293.62215266606347" cy="167.96637755857665" r="5.820054034618877" fill="#5a6a3a" opacity="0.5"/><circle cx="247.93333169905432" cy="142.69306580360322" r="5.394327051363644" fill="#5a6a3a" opacity="0.5"/><circle cx="250.68895787016737" cy="155.06903749143999" r="4.2320618496445945" fill="#5a6a3a" opacity="0.5"/><circle cx="278.462070447266" cy="165.86993621741988" r="5.426257090020622" fill="#5a6a3a" opacity="0.5"/><circle cx="194.2187910246019" cy="123.8683089192107" r="4.5493829985395084" fill="#5a6a3a" opacity="0.5"/><circle cx="229.26638922305776" cy="130.83865120230206" r="4.446548313662414" fill="#5a6a3a" opacity="0.5"/><circle cx="168.79644435116626" cy="122.18624055078283" r="2.348114589671813" fill="#5a6a3a" opacity="0.5"/><circle cx="138.12382899206906" cy="75.75032861560109" r="3.496851641396778" fill="#5a6a3a" opacity="0.5"/><circle cx="181.71628298994673" cy="87.57635454076662" r="3.157202721608003" fill="#5a6a3a" opacity="0.5"/><circle cx="169.81802548731878" cy="92.79530324871777" r="4.1446685645297325" fill="#5a6a3a" opacity="0.5"/><circle cx="302.00166832086114" cy="156.80955269452554" r="3.9092509112002345" fill="#5a6a3a" opacity="0.5"/><circle cx="186.96843250580693" cy="156.6466314668587" r="5.6098166831252545" fill="#5a6a3a" opacity="0.5"/><circle cx="94.03477711401369" cy="169.3084010322004" r="2.2786583379632743" fill="#5a6a3a" opacity="0.5"/><circle cx="140.57870479532397" cy="98.58223308431906" r="5.244557278484685" fill="#5a6a3a" opacity="0.5"/><circle cx="277.82707400747074" cy="162.5525231028011" r="3.958188667889611" fill="#5a6a3a" opacity="0.5"/></g>
  <path d="M 60,125 Q 40,105 50,85 Q 65,55 120,45 Q 180,35 240,50 Q 300,65 330,100 Q 340,115 340,125 Q 340,135 330,150 Q 300,185 240,200 Q 180,215 120,205 Q 65,195 50,165 Q 40,145 60,125 Z" fill="none" stroke="#7a8a5a" stroke-width="0.5" opacity="0.15"/>
  <path d="M 100,145 Q 80,165 75,185 Q 90,175 110,160 Z" fill="url(#finGrad)" opacity="0.75"/>
  <path d="M 150,195 Q 155,215 170,225 Q 175,215 165,200 Z" fill="url(#finGrad)" opacity="0.75"/>
  <path d="M 240,200 Q 250,220 270,230 Q 280,225 290,210 Q 275,205 260,200 Z" fill="url(#finGrad)" opacity="0.8"/>
  <path d="M 90,125 Q 150,122 220,125 Q 290,128 340,125" stroke="#7a8a5a" stroke-width="0.8" fill="none" opacity="0.3" stroke-dasharray="3,3"/>
  <circle cx="95" cy="110" r="10" fill="#1a1a1a"/>
  <circle cx="95" cy="110" r="7" fill="#2a3a2a"/>
  <circle cx="93" cy="108" r="2.5" fill="#ffffff" opacity="0.8"/>
  <path d="M 55,115 Q 45,118 42,125 Q 45,132 55,135" stroke="#5a6a3a" stroke-width="1.5" fill="none" stroke-linecap="round"/>
  <path d="M 113,95 Q 110,115 115,135" stroke="#5a6a3a" stroke-width="1.5" fill="none" opacity="0.5"/>
  <text x="200" y="242" text-anchor="middle" font-family="sans-serif" font-size="11" fill="#ffffff" opacity="0.5" font-weight="600">Kaulbarsch</text>
</svg>