<svg xmlns="http://www.w3.org/2000/svg" viewBox="0 0 400 250" width="400" height="250">
  <defs>
    <linearGradient id="bg" x1="0" y1="0" x2="0" y2="1">
      <stop offset="0%" stop-color="#2a3028"/>
      <stop offset="100%" stop-color="#1a2018"/>
    </linearGradient>
    <linearGradient id="bodyGrad" x1="0" y1="0" x2="0" y2="1">
      <stop offset="0%" stop-color="#6a6a50"/>
      <stop offset="60%" stop-color="#4a4a30"/>
      <stop offset="100%" stop-color="#a8a890"/>
    </linearGradient>
    <linearGradient id="finGrad" x1="0" y1="0" x2="0" y2="1">
      <stop offset="0%" stop-color="#7a7a60"/>
      <stop offset="100%" stop-color="#4a4a30"/>
    </linearGradient>
    <clipPath id="bodyClip">
      <path d="M 50,120 Q 35,105 40,88 Q 55,60 110,48 Q 180,38 260,48 Q 330,62 355,95 Q 365,112 365,128 Q 365,145 355,165 Q 330,198 260,212 Q 180,222 110,212 Q 55,200 40,172 Q 35,155 50,140 Z"/>
    </clipPath>
  </defs>

  <!-- Background -->
  <rect width="400" height="250" fill="url(#bg)" rx="8"/>

  <!-- Water shimmer -->
  <g opacity="0.08">
    <path d="M 0,180 Q 50,175 100,180 Q 150,185 200,180 Q 250,175 300,180 Q 350,185 400,180" stroke="#ffffff" stroke-width="1.5" fill="none"/>
    <path d="M 0,200 Q 50,195 100,200 Q 150,205 200,200 Q 250,195 300,200 Q 350,205 400,200" stroke="#ffffff" stroke-width="1" fill="none"/>
    <path d="M 0,220 Q 50,215 100,220 Q 150,225 200,220 Q 250,215 300,220 Q 350,225 400,220" stroke="#ffffff" stroke-width="0.8" fill="none"/>
  </g>
  <path d="M 360,105 Q 378,72 392,58 Q 386,88 382,108 L 382,148 Q 386,172 392,202 Q 378,188 360,155 Q 362,130 360,105 Z" fill="url(#finGrad)" opacity="0.85"/>
  <path d="M 160,48 Q 168,22 180,18 Q 192,22 198,38 Q 195,42 185,45 Q 175,46 165,48 Z" fill="url(#finGrad)" opacity="0.85"/>
  <path d="M 50,120 Q 35,105 40,88 Q 55,60 110,48 Q 180,38 260,48 Q 330,62 355,95 Q 365,112 365,128 Q 365,145 355,165 Q 330,198 260,212 Q 180,222 110,212 Q 55,200 40,172 Q 35,155 50,140 Z" fill="url(#bodyGrad)" stroke="#4a4a30" stroke-width="1"/>
  <g clip-path="url(#bodyClip)"><ellipse cx="214.3696993652029" cy="164.36354796940833" rx="4.967310347534877" ry="4.749940402903402" fill="#4a4a30" opacity="0.22306472507687033" transform="rotate(-27.55416436636604 214.3696993652029 164.36354796940833)"/><ellipse cx="113.90793425094438" cy="148.6288995293627" rx="6.670424370602624" ry="3.0714816798807476" fill="#4a4a30" opacity="0.25243158347036" transform="rotate(3.3007692126998833 113.90793425094438 148.6288995293627)"/><ellipse cx="265.0164899579953" cy="154.72240223621537" rx="6.922103397375053" ry="2.473301784570414" fill="#4a4a30" opacity="0.3918748274575794" transform="rotate(25.032298772674082 265.0164899579953 154.72240223621537)"/><ellipse cx="263.2961233870327" cy="171.4184158779103" rx="9.537123675272266" ry="5.854724747176062" fill="#4a4a30" opacity="0.31858147416658805" transform="rotate(27.484908024260974 263.2961233870327 171.4184158779103)"/><ellipse cx="311.80739169661155" cy="114.63069960609653" rx="10.62280691954535" ry="3.5619449964363104" fill="#4a4a30" opacity="0.37152794372256276" transform="rotate(29.371586399704327 311.80739169661155 114.63069960609653)"/><ellipse cx="219.01792614789113" cy="118.88185866822104" rx="8.838781858339754" ry="2.7588524365911242" fill="#4a4a30" opacity="0.2379902046806086" transform="rotate(-1.5055601323627457 219.01792614789113 118.88185866822104)"/><ellipse cx="319.63100567354286" cy="99.815874572877" rx="3.0601193721649302" ry="6.974201158932123" fill="#4a4a30" opacity="0.32037924279721797" transform="rotate(10.795432032531515 319.63100567354286 99.815874572877)"/><ellipse cx="306.58397022616373" cy="97.49127165865656" rx="10.616887323436805" ry="2.806486543860083" fill="#4a4a30" opacity="0.2960320621834079" transform="rotate(4.637609135605246 306.58397022616373 97.49127165865656)"/><ellipse cx="268.7858331749741" cy="151.71444991665624" rx="10.363989460530497" ry="2.2685537007517076" fill="#4a4a30" opacity="0.26522578498386046" transform="rotate(12.749862018328379 268.7858331749741 151.71444991665624)"/><ellipse cx="119.0300407330588" cy="163.49228265488142" rx="3.439061158227376" ry="2.375410776188943" fill="#4a4a30" opacity="0.3401342554408582" transform="rotate(16.689565684337147 119.0300407330588 163.49228265488142)"/><ellipse cx="314.7452036358627" cy="88.19566963883385" rx="3.971278962350807" ry="2.5667437060801905" fill="#4a4a30" opacity="0.2802549217511854" transform="rotate(-12.472435046204893 314.7452036358627 88.19566963883385)"/><ellipse cx="232.2074953658562" cy="113.381515780698" rx="5.990056607898195" ry="4.126737441221254" fill="#4a4a30" opacity="0.34023395778599075" transform="rotate(6.94585746837452 232.2074953658562 113.381515780698)"/><ellipse cx="243.07583367680044" cy="115.27325013442771" rx="9.43600562723861" ry="2.1315216023480836" fill="#4a4a30" opacity="0.3879486616567228" transform="rotate(-14.919714597142734 243.07583367680044 115.27325013442771)"/><ellipse cx="273.35727203441184" cy="139.7184513776377" rx="3.038842608243863" ry="6.868155927992871" fill="#4a4a30" opacity="0.2945272088978631" transform="rotate(22.69953760591116 273.35727203441184 139.7184513776377)"/><ellipse cx="112.3278921502298" cy="115.41336697426848" rx="9.105403455273336" ry="6.677369756577133" fill="#4a4a30" opacity="0.3255224358812152" transform="rotate(9.114403087674035 112.3278921502298 115.41336697426848)"/><ellipse cx="98.59593632988876" cy="74.24060358663064" rx="10.634346895953714" ry="2.690254491690749" fill="#4a4a30" opacity="0.2602538013846254" transform="rotate(2.8823367325229867 98.59593632988876 74.24060358663064)"/><ellipse cx="316.85512484439494" cy="179.07389510825476" rx="6.657300429267336" ry="6.648260709776013" fill="#4a4a30" opacity="0.31370546906199825" transform="rotate(26.324354749774784 316.85512484439494 179.07389510825476)"/><ellipse cx="168.16085575082008" cy="137.7499380498499" rx="8.005852116424032" ry="5.733853406007388" fill="#4a4a30" opacity="0.2500911085977248" transform="rotate(26.507184901100587 168.16085575082008 137.7499380498499)"/><ellipse cx="308.52238447610137" cy="71.47301205789302" rx="8.672991056535258" ry="2.53434412401794" fill="#4a4a30" opacity="0.2693943014374516" transform="rotate(-13.38358625506483 308.52238447610137 71.47301205789302)"/><ellipse cx="98.58623659958815" cy="130.90233958302076" rx="10.50290053512824" ry="5.577083820845816" fill="#4a4a30" opacity="0.2963030633018129" transform="rotate(-2.9252618580002547 98.58623659958815 130.90233958302076)"/></g>
  <path d="M 50,120 Q 35,105 40,88 Q 55,60 110,48 Q 180,38 260,48 Q 330,62 355,95 Q 365,112 365,128 Q 365,145 355,165 Q 330,198 260,212 Q 180,222 110,212 Q 55,200 40,172 Q 35,155 50,140 Z" fill="none" stroke="#6a6a50" stroke-width="0.5" opacity="0.15"/>
  <path d="M 95,150 Q 68,175 60,200 Q 80,190 100,168 Z" fill="url(#finGrad)" opacity="0.75"/>
  <path d="M 155,210 Q 158,228 168,235 Q 176,228 172,215 Z" fill="url(#finGrad)" opacity="0.75"/>
  <path d="M 180,218 Q 185,235 210,240 Q 260,242 310,235 Q 340,225 352,210 Q 330,218 290,225 Q 240,228 200,222 Z" fill="url(#finGrad)" opacity="0.8"/>
  <path d="M 45,105 Q 20,85 5,75 Q 10,70 30,80" stroke="#4a4a30" stroke-width="2" fill="none" stroke-linecap="round"/>
  <path d="M 48,100 Q 25,78 12,65 Q 18,62 35,75" stroke="#4a4a30" stroke-width="2" fill="none" stroke-linecap="round"/>
  <path d="M 42,140 Q 30,155 25,165" stroke="#4a4a30" stroke-width="2" fill="none" stroke-linecap="round"/>
  <path d="M 45,145 Q 35,158 32,168" stroke="#4a4a30" stroke-width="2" fill="none" stroke-linecap="round"/>
  <path d="M 90,125 Q 150,122 220,125 Q 290,128 340,125" stroke="#6a6a50" stroke-width="0.8" fill="none" opacity="0.3" stroke-dasharray="3,3"/>
  <circle cx="82" cy="98" r="7" fill="#1a1a1a"/>
  <circle cx="82" cy="98" r="4.8999999999999995" fill="#2a3a2a"/>
  <circle cx="80" cy="96" r="1.75" fill="#ffffff" opacity="0.8"/>
  <path d="M 42,108 Q 28,115 22,125 Q 28,140 42,145" stroke="#4a4a30" stroke-width="1.5" fill="none" stroke-linecap="round"/>
  <path d="M 100,83 Q 97,103 102,123" stroke="#4a4a30" stroke-width="1.5" fill="none" opacity="0.5"/>
  <text x="200" y="242" text-anchor="middle" font-family="sans-serif" font-size="11" fill="#ffffff" opacity="0.5" font-weight="600">Koppe</text>
</svg>