<svg xmlns="http://www.w3.org/2000/svg" viewBox="0 0 400 250" width="400" height="250">
  <defs>
    <linearGradient id="bg" x1="0" y1="0" x2="0" y2="1">
      <stop offset="0%" stop-color="#2a4a5a"/>
      <stop offset="100%" stop-color="#183848"/>
    </linearGradient>
    <linearGradient id="bodyGrad" x1="0" y1="0" x2="0" y2="1">
      <stop offset="0%" stop-color="#6a8a7a"/>
      <stop offset="60%" stop-color="#4a6a5a"/>
      <stop offset="100%" stop-color="#d8d0c0"/>
    </linearGradient>
    <linearGradient id="finGrad" x1="0" y1="0" x2="0" y2="1">
      <stop offset="0%" stop-color="#8a7a8a"/>
      <stop offset="100%" stop-color="#4a6a5a"/>
    </linearGradient><linearGradient id="rainbow" x1="0" y1="0" x2="0" y2="1">
        <stop offset="0%" stop-color="transparent"/>
        <stop offset="30%" stop-color="#d04080" stop-opacity="0.3"/>
        <stop offset="50%" stop-color="#e06080" stop-opacity="0.4"/>
        <stop offset="70%" stop-color="#d04080" stop-opacity="0.3"/>
        <stop offset="100%" stop-color="transparent"/>
    </linearGradient>
    <clipPath id="bodyClip">
      <path d="M 60,125 Q 40,105 50,85 Q 65,55 120,45 Q 180,35 240,50 Q 300,65 330,100 Q 340,115 340,125 Q 340,135 330,150 Q 300,185 240,200 Q 180,215 120,205 Q 65,195 50,165 Q 40,145 60,125 Z"/>
    </clipPath>
  </defs>

  <!-- Background -->
  <rect width="400" height="250" fill="url(#bg)" rx="8"/>

  <!-- Water shimmer -->
  <g opacity="0.08">
    <path d="M 0,180 Q 50,175 100,180 Q 150,185 200,180 Q 250,175 300,180 Q 350,185 400,180" stroke="#ffffff" stroke-width="1.5" fill="none"/>
    <path d="M 0,200 Q 50,195 100,200 Q 150,205 200,200 Q 250,195 300,200 Q 350,205 400,200" stroke="#ffffff" stroke-width="1" fill="none"/>
    <path d="M 0,220 Q 50,215 100,220 Q 150,225 200,220 Q 250,215 300,220 Q 350,225 400,220" stroke="#ffffff" stroke-width="0.8" fill="none"/>
  </g>
  <path d="M 330,100 Q 355,65 380,50 Q 370,80 365,100 Q 365,125 Q 365,150 370,170 Q 355,185 330,150 Q 335,125 330,100 Z" fill="url(#finGrad)" opacity="0.85"/>
  <path d="M 160,50 Q 170,15 200,10 Q 230,15 250,25 Q 260,35 270,50 Q 240,45 210,42 Q 180,42 160,50 Z" fill="url(#finGrad)" opacity="0.85"/>
  <path d="M 60,125 Q 40,105 50,85 Q 65,55 120,45 Q 180,35 240,50 Q 300,65 330,100 Q 340,115 340,125 Q 340,135 330,150 Q 300,185 240,200 Q 180,215 120,205 Q 65,195 50,165 Q 40,145 60,125 Z" fill="url(#bodyGrad)" stroke="#4a6a5a" stroke-width="1"/>
  <path d="M 60,125 Q 40,105 50,85 Q 65,55 120,45 Q 180,35 240,50 Q 300,65 330,100 Q 340,115 340,125 Q 340,135 330,150 Q 300,185 240,200 Q 180,215 120,205 Q 65,195 50,165 Q 40,145 60,125 Z" fill="url(#rainbow)" clip-path="url(#bodyClip)"/>
  <g clip-path="url(#bodyClip)"><circle cx="101.04771450522303" cy="131.52262025178118" r="2.853603337015066" fill="#2a2a2a" opacity="0.6"/><circle cx="225.4975151893117" cy="115.05559535140854" r="2.3415699494106637" fill="#2a2a2a" opacity="0.6"/><circle cx="138.8065662832255" cy="127.80749039526427" r="3.726579866383755" fill="#2a2a2a" opacity="0.6"/><circle cx="185.70970055699848" cy="109.00225289838464" r="4.94229917192061" fill="#2a2a2a" opacity="0.6"/><circle cx="137.52926810007034" cy="90.0186626271505" r="4.354523484960152" fill="#2a2a2a" opacity="0.6"/><circle cx="156.72821108922705" cy="145.34035985845122" r="4.537995667801317" fill="#2a2a2a" opacity="0.6"/><circle cx="272.0699032515192" cy="83.75951799262984" r="3.3519337075687945" fill="#2a2a2a" opacity="0.6"/><circle cx="103.23051172019868" cy="159.13338222625106" r="4.591673637187403" fill="#2a2a2a" opacity="0.6"/><circle cx="235.5825378006367" cy="127.46532348217063" r="3.244604461402088" fill="#2a2a2a" opacity="0.6"/><circle cx="154.09406953647095" cy="134.33558951465287" r="3.8415598130479673" fill="#2a2a2a" opacity="0.6"/><circle cx="179.99957414451882" cy="85.46425738358388" r="3.619527455178507" fill="#2a2a2a" opacity="0.6"/><circle cx="179.02278885346493" cy="148.07280744433" r="4.09650220454308" fill="#2a2a2a" opacity="0.6"/><circle cx="230.9315723855537" cy="113.32824761780262" r="1.878840838889447" fill="#c03020" opacity="0.5"/><circle cx="188.523990278805" cy="91.03391124061454" r="3.2189534866782035" fill="#c03020" opacity="0.5"/><circle cx="212.97048054264272" cy="129.95553930691423" r="2.319575011221057" fill="#c03020" opacity="0.5"/><circle cx="245.59494005763673" cy="103.45941627856297" r="1.8173490277821713" fill="#c03020" opacity="0.5"/><circle cx="247.96784615094498" cy="141.8489160453315" r="3.2430665269895886" fill="#c03020" opacity="0.5"/><circle cx="252.92971951697524" cy="117.88241987287626" r="3.8379997495041898" fill="#c03020" opacity="0.5"/><circle cx="281.102498844006" cy="98.33169845198572" r="3.9079874775387684" fill="#c03020" opacity="0.5"/><circle cx="112.17595323554377" cy="139.54731153681143" r="2.436227026078293" fill="#c03020" opacity="0.5"/></g>
  <path d="M 60,125 Q 40,105 50,85 Q 65,55 120,45 Q 180,35 240,50 Q 300,65 330,100 Q 340,115 340,125 Q 340,135 330,150 Q 300,185 240,200 Q 180,215 120,205 Q 65,195 50,165 Q 40,145 60,125 Z" fill="none" stroke="#6a8a7a" stroke-width="0.5" opacity="0.15"/>
  <path d="M 100,145 Q 80,165 75,185 Q 90,175 110,160 Z" fill="url(#finGrad)" opacity="0.75"/>
  <path d="M 150,195 Q 155,215 170,225 Q 175,215 165,200 Z" fill="url(#finGrad)" opacity="0.75"/>
  <path d="M 240,200 Q 250,220 270,230 Q 280,225 290,210 Q 275,205 260,200 Z" fill="url(#finGrad)" opacity="0.8"/>
  <path d="M 90,125 Q 150,122 220,125 Q 290,128 340,125" stroke="#6a8a7a" stroke-width="0.8" fill="none" opacity="0.3" stroke-dasharray="3,3"/>
  <circle cx="95" cy="110" r="10" fill="#1a1a1a"/>
  <circle cx="95" cy="110" r="7" fill="#2a3a2a"/>
  <circle cx="93" cy="108" r="2.5" fill="#ffffff" opacity="0.8"/>
  <path d="M 55,115 Q 45,118 42,125 Q 45,132 55,135" stroke="#4a6a5a" stroke-width="1.5" fill="none" stroke-linecap="round"/>
  <path d="M 113,95 Q 110,115 115,135" stroke="#4a6a5a" stroke-width="1.5" fill="none" opacity="0.5"/>
  <text x="200" y="242" text-anchor="middle" font-family="sans-serif" font-size="11" fill="#ffffff" opacity="0.5" font-weight="600">Regenbogenforelle</text>
</svg>