<svg xmlns="http://www.w3.org/2000/svg" viewBox="0 0 400 250" width="400" height="250">
  <defs>
    <linearGradient id="bg" x1="0" y1="0" x2="0" y2="1">
      <stop offset="0%" stop-color="#1a3a4a"/>
      <stop offset="100%" stop-color="#0a2838"/>
    </linearGradient>
    <linearGradient id="bodyGrad" x1="0" y1="0" x2="0" y2="1">
      <stop offset="0%" stop-color="#5a7a8a"/>
      <stop offset="60%" stop-color="#3a5a6a"/>
      <stop offset="100%" stop-color="#e08848"/>
    </linearGradient>
    <linearGradient id="finGrad" x1="0" y1="0" x2="0" y2="1">
      <stop offset="0%" stop-color="#d87040"/>
      <stop offset="100%" stop-color="#3a5a6a"/>
    </linearGradient>
    <clipPath id="bodyClip">
      <path d="M 60,125 Q 40,105 50,85 Q 65,55 120,45 Q 180,35 240,50 Q 300,65 330,100 Q 340,115 340,125 Q 340,135 330,150 Q 300,185 240,200 Q 180,215 120,205 Q 65,195 50,165 Q 40,145 60,125 Z"/>
    </clipPath>
  </defs>

  <!-- Background -->
  <rect width="400" height="250" fill="url(#bg)" rx="8"/>

  <!-- Water shimmer -->
  <g opacity="0.08">
    <path d="M 0,180 Q 50,175 100,180 Q 150,185 200,180 Q 250,175 300,180 Q 350,185 400,180" stroke="#ffffff" stroke-width="1.5" fill="none"/>
    <path d="M 0,200 Q 50,195 100,200 Q 150,205 200,200 Q 250,195 300,200 Q 350,205 400,200" stroke="#ffffff" stroke-width="1" fill="none"/>
    <path d="M 0,220 Q 50,215 100,220 Q 150,225 200,220 Q 250,215 300,220 Q 350,225 400,220" stroke="#ffffff" stroke-width="0.8" fill="none"/>
  </g>
  <path d="M 330,100 Q 355,65 380,50 Q 370,80 365,100 Q 365,125 Q 365,150 370,170 Q 355,185 330,150 Q 335,125 330,100 Z" fill="url(#finGrad)" opacity="0.85"/>
  <path d="M 160,50 Q 170,15 200,10 Q 230,15 250,25 Q 260,35 270,50 Q 240,45 210,42 Q 180,42 160,50 Z" fill="url(#finGrad)" opacity="0.85"/>
  <path d="M 60,125 Q 40,105 50,85 Q 65,55 120,45 Q 180,35 240,50 Q 300,65 330,100 Q 340,115 340,125 Q 340,135 330,150 Q 300,185 240,200 Q 180,215 120,205 Q 65,195 50,165 Q 40,145 60,125 Z" fill="url(#bodyGrad)" stroke="#3a5a6a" stroke-width="1"/>
  <g clip-path="url(#bodyClip)"><circle cx="149.93643490052398" cy="152.04971183384686" r="4.0195451227881325" fill="#c84830" opacity="0.6"/><circle cx="180.09705956671425" cy="86.8845545064144" r="2.1407853912225936" fill="#c84830" opacity="0.6"/><circle cx="217.2691475711408" cy="153.37665024550583" r="3.030987203841192" fill="#c84830" opacity="0.6"/><circle cx="185.1785376855213" cy="151.51513927210613" r="4.394217111491846" fill="#c84830" opacity="0.6"/><circle cx="157.90978395698335" cy="109.5828614005022" r="3.2140824019715066" fill="#c84830" opacity="0.6"/><circle cx="123.19829803957079" cy="148.97079134817713" r="3.252198101775638" fill="#c84830" opacity="0.6"/><circle cx="143.49986331076565" cy="132.45985964947357" r="3.0786145205852935" fill="#c84830" opacity="0.6"/><circle cx="118.70760732846617" cy="125.35311560521794" r="3.2256961813216303" fill="#c84830" opacity="0.6"/><circle cx="103.11570114371216" cy="150.42368449975498" r="4.830458310228188" fill="#c84830" opacity="0.6"/><circle cx="135.79621883214816" cy="120.91493005690992" r="4.734897354193207" fill="#c84830" opacity="0.6"/><circle cx="173.05493858281923" cy="102.41153669860488" r="3.474815275416282" fill="#c84830" opacity="0.6"/><circle cx="254.14593211636426" cy="95.94207329977414" r="2.9032985441750663" fill="#c84830" opacity="0.6"/><circle cx="129.54305542890683" cy="147.1779477229493" r="3.107016134226588" fill="#c03020" opacity="0.5"/><circle cx="264.25962568258467" cy="107.46236473630422" r="3.150081018117248" fill="#c03020" opacity="0.5"/><circle cx="253.37624247280232" cy="104.54869627317754" r="1.695533810848283" fill="#c03020" opacity="0.5"/><circle cx="205.641412059144" cy="151.23973728971814" r="1.9694957404433506" fill="#c03020" opacity="0.5"/><circle cx="235.37789572392586" cy="126.14259785723982" r="3.8227375117104185" fill="#c03020" opacity="0.5"/><circle cx="124.10905105728159" cy="109.75516970642249" r="2.8667314562764203" fill="#c03020" opacity="0.5"/><circle cx="204.03733248652867" cy="99.92613620179401" r="1.9575972607576957" fill="#c03020" opacity="0.5"/><circle cx="187.14242255163185" cy="90.71513699748334" r="2.2946792712762503" fill="#c03020" opacity="0.5"/></g>
  <path d="M 60,125 Q 40,105 50,85 Q 65,55 120,45 Q 180,35 240,50 Q 300,65 330,100 Q 340,115 340,125 Q 340,135 330,150 Q 300,185 240,200 Q 180,215 120,205 Q 65,195 50,165 Q 40,145 60,125 Z" fill="none" stroke="#5a7a8a" stroke-width="0.5" opacity="0.15"/>
  <path d="M 100,145 Q 80,165 75,185 Q 90,175 110,160 Z" fill="url(#finGrad)" opacity="0.75"/>
  <path d="M 150,195 Q 155,215 170,225 Q 175,215 165,200 Z" fill="url(#finGrad)" opacity="0.75"/>
  <path d="M 240,200 Q 250,220 270,230 Q 280,225 290,210 Q 275,205 260,200 Z" fill="url(#finGrad)" opacity="0.8"/>
  <path d="M 90,125 Q 150,122 220,125 Q 290,128 340,125" stroke="#5a7a8a" stroke-width="0.8" fill="none" opacity="0.3" stroke-dasharray="3,3"/>
  <circle cx="95" cy="110" r="10" fill="#1a1a1a"/>
  <circle cx="95" cy="110" r="7" fill="#2a3a2a"/>
  <circle cx="93" cy="108" r="2.5" fill="#ffffff" opacity="0.8"/>
  <path d="M 55,115 Q 45,118 42,125 Q 45,132 55,135" stroke="#3a5a6a" stroke-width="1.5" fill="none" stroke-linecap="round"/>
  <path d="M 113,95 Q 110,115 115,135" stroke="#3a5a6a" stroke-width="1.5" fill="none" opacity="0.5"/>
  <text x="200" y="242" text-anchor="middle" font-family="sans-serif" font-size="11" fill="#ffffff" opacity="0.5" font-weight="600">Seesaibling</text>
</svg>