<svg xmlns="http://www.w3.org/2000/svg" viewBox="0 0 400 250" width="400" height="250">
  <defs>
    <linearGradient id="bg" x1="0" y1="0" x2="0" y2="1">
      <stop offset="0%" stop-color="#1a2a2a"/>
      <stop offset="100%" stop-color="#0a1818"/>
    </linearGradient>
    <linearGradient id="bodyGrad" x1="0" y1="0" x2="0" y2="1">
      <stop offset="0%" stop-color="#6a5a48"/>
      <stop offset="60%" stop-color="#4a3a28"/>
      <stop offset="100%" stop-color="#a89880"/>
    </linearGradient>
    <linearGradient id="finGrad" x1="0" y1="0" x2="0" y2="1">
      <stop offset="0%" stop-color="#7a6a58"/>
      <stop offset="100%" stop-color="#4a3a28"/>
    </linearGradient>
    <clipPath id="bodyClip">
      <path d="M 50,120 Q 35,105 40,88 Q 55,60 110,48 Q 180,38 260,48 Q 330,62 355,95 Q 365,112 365,128 Q 365,145 355,165 Q 330,198 260,212 Q 180,222 110,212 Q 55,200 40,172 Q 35,155 50,140 Z"/>
    </clipPath>
  </defs>

  <!-- Background -->
  <rect width="400" height="250" fill="url(#bg)" rx="8"/>

  <!-- Water shimmer -->
  <g opacity="0.08">
    <path d="M 0,180 Q 50,175 100,180 Q 150,185 200,180 Q 250,175 300,180 Q 350,185 400,180" stroke="#ffffff" stroke-width="1.5" fill="none"/>
    <path d="M 0,200 Q 50,195 100,200 Q 150,205 200,200 Q 250,195 300,200 Q 350,205 400,200" stroke="#ffffff" stroke-width="1" fill="none"/>
    <path d="M 0,220 Q 50,215 100,220 Q 150,225 200,220 Q 250,215 300,220 Q 350,225 400,220" stroke="#ffffff" stroke-width="0.8" fill="none"/>
  </g>
  <path d="M 360,105 Q 378,72 392,58 Q 386,88 382,108 L 382,148 Q 386,172 392,202 Q 378,188 360,155 Q 362,130 360,105 Z" fill="url(#finGrad)" opacity="0.85"/>
  <path d="M 160,48 Q 168,22 180,18 Q 192,22 198,38 Q 195,42 185,45 Q 175,46 165,48 Z" fill="url(#finGrad)" opacity="0.85"/>
  <path d="M 50,120 Q 35,105 40,88 Q 55,60 110,48 Q 180,38 260,48 Q 330,62 355,95 Q 365,112 365,128 Q 365,145 355,165 Q 330,198 260,212 Q 180,222 110,212 Q 55,200 40,172 Q 35,155 50,140 Z" fill="url(#bodyGrad)" stroke="#4a3a28" stroke-width="1"/>
  <g clip-path="url(#bodyClip)"><ellipse cx="235.71071483972204" cy="80.30136153497833" rx="5.480929369305599" ry="4.9167490028782" fill="#5a4a38" opacity="0.3260830040406769" transform="rotate(-18.826088134323097 235.71071483972204 80.30136153497833)"/><ellipse cx="277.2005089284921" cy="165.8142429653002" rx="8.654063911331031" ry="5.476471220897595" fill="#5a4a38" opacity="0.3279175436753081" transform="rotate(6.411599175108705 277.2005089284921 165.8142429653002)"/><ellipse cx="154.64710617114446" cy="133.83340688043856" rx="4.963419816534158" ry="4.367584601476544" fill="#5a4a38" opacity="0.34805376477827454" transform="rotate(-22.534347603768943 154.64710617114446 133.83340688043856)"/><ellipse cx="175.16474096318274" cy="165.9136463505825" rx="7.244259109334042" ry="6.620526853153849" fill="#5a4a38" opacity="0.29612133654733935" transform="rotate(-13.020037117042104 175.16474096318274 165.9136463505825)"/><ellipse cx="236.2303519849873" cy="74.0853344682268" rx="5.2652424847502015" ry="2.8205183874790203" fill="#5a4a38" opacity="0.30391707192096346" transform="rotate(14.365182434115674 236.2303519849873 74.0853344682268)"/><ellipse cx="202.34751881451626" cy="129.39338304773315" rx="6.093931599418323" ry="2.34943996197721" fill="#5a4a38" opacity="0.34550289594155253" transform="rotate(12.810910570874626 202.34751881451626 129.39338304773315)"/><ellipse cx="216.92849024318252" cy="134.90891661635138" rx="4.82630944042765" ry="3.240533336504674" fill="#5a4a38" opacity="0.3661132292287932" transform="rotate(-27.896147559487062 216.92849024318252 134.90891661635138)"/><ellipse cx="188.31846295926943" cy="87.19872902166739" rx="8.451229058159008" ry="3.507629629398145" fill="#5a4a38" opacity="0.2222371577483048" transform="rotate(25.8167320315873 188.31846295926943 87.19872902166739)"/><ellipse cx="208.0117935156853" cy="126.71934056907857" rx="4.439877603492101" ry="2.2220086038742997" fill="#5a4a38" opacity="0.34740993025544764" transform="rotate(-10.073605395073582 208.0117935156853 126.71934056907857)"/><ellipse cx="226.48756391385552" cy="158.39768673717185" rx="7.143380960214558" ry="3.7804086628089233" fill="#5a4a38" opacity="0.30890191391596733" transform="rotate(27.746938341845507 226.48756391385552 158.39768673717185)"/><ellipse cx="277.8139785710704" cy="165.80195404339975" rx="8.700111134241585" ry="5.775840200840069" fill="#5a4a38" opacity="0.24092965753154805" transform="rotate(-9.94296578776897 277.8139785710704 165.80195404339975)"/><ellipse cx="126.84508264395197" cy="169.1669984043619" rx="5.737558844096327" ry="3.661503846426109" fill="#5a4a38" opacity="0.2511623445866876" transform="rotate(10.621810366494387 126.84508264395197 169.1669984043619)"/><ellipse cx="96.00161521556092" cy="115.46595236835665" rx="10.473482698095781" ry="3.396511647408981" fill="#5a4a38" opacity="0.23973273285567678" transform="rotate(9.505039691062933 96.00161521556092 115.46595236835665)"/><ellipse cx="93.16841829946607" cy="91.66980075714851" rx="6.841951633177398" ry="4.026161065171751" fill="#5a4a38" opacity="0.3890925630249963" transform="rotate(-2.849608183206275 93.16841829946607 91.66980075714851)"/><ellipse cx="132.77213263294738" cy="118.68898096873332" rx="3.6205380959597235" ry="5.533481262577786" fill="#5a4a38" opacity="0.2637048951102703" transform="rotate(3.5236173795497265 132.77213263294738 118.68898096873332)"/><ellipse cx="210.20785321077415" cy="133.46603686824244" rx="8.453965871921035" ry="5.837481721563698" fill="#5a4a38" opacity="0.2607850111273331" transform="rotate(-13.544792099682365 210.20785321077415 133.46603686824244)"/><ellipse cx="228.08928259297386" cy="159.4034034111531" rx="9.594831105062369" ry="4.429647742518115" fill="#5a4a38" opacity="0.31441176506891405" transform="rotate(-9.509548727045495 228.08928259297386 159.4034034111531)"/><ellipse cx="241.27905112849803" cy="78.9939848087315" rx="10.737952528354974" ry="6.330383089295492" fill="#5a4a38" opacity="0.28078249220731005" transform="rotate(9.99871776827392 241.27905112849803 78.9939848087315)"/><ellipse cx="114.11294687639777" cy="126.27278986662927" rx="8.178927433396929" ry="4.8021864039264255" fill="#5a4a38" opacity="0.33409298671270604" transform="rotate(12.141887173844395 114.11294687639777 126.27278986662927)"/><ellipse cx="81.9527609007329" cy="91.61361057086897" rx="7.962275201733609" ry="2.6601396512522633" fill="#5a4a38" opacity="0.3600356925156137" transform="rotate(-19.50824434381441 81.9527609007329 91.61361057086897)"/></g>
  <path d="M 50,120 Q 35,105 40,88 Q 55,60 110,48 Q 180,38 260,48 Q 330,62 355,95 Q 365,112 365,128 Q 365,145 355,165 Q 330,198 260,212 Q 180,222 110,212 Q 55,200 40,172 Q 35,155 50,140 Z" fill="none" stroke="#6a5a48" stroke-width="0.5" opacity="0.15"/>
  <path d="M 95,150 Q 68,175 60,200 Q 80,190 100,168 Z" fill="url(#finGrad)" opacity="0.75"/>
  <path d="M 155,210 Q 158,228 168,235 Q 176,228 172,215 Z" fill="url(#finGrad)" opacity="0.75"/>
  <path d="M 180,218 Q 185,235 210,240 Q 260,242 310,235 Q 340,225 352,210 Q 330,218 290,225 Q 240,228 200,222 Z" fill="url(#finGrad)" opacity="0.8"/>
  <path d="M 45,105 Q 20,85 5,75 Q 10,70 30,80" stroke="#4a3a28" stroke-width="2" fill="none" stroke-linecap="round"/>
  <path d="M 48,100 Q 25,78 12,65 Q 18,62 35,75" stroke="#4a3a28" stroke-width="2" fill="none" stroke-linecap="round"/>
  <path d="M 42,140 Q 30,155 25,165" stroke="#4a3a28" stroke-width="2" fill="none" stroke-linecap="round"/>
  <path d="M 45,145 Q 35,158 32,168" stroke="#4a3a28" stroke-width="2" fill="none" stroke-linecap="round"/>
  <path d="M 90,125 Q 150,122 220,125 Q 290,128 340,125" stroke="#6a5a48" stroke-width="0.8" fill="none" opacity="0.3" stroke-dasharray="3,3"/>
  <circle cx="82" cy="98" r="7" fill="#1a1a1a"/>
  <circle cx="82" cy="98" r="4.8999999999999995" fill="#2a3a2a"/>
  <circle cx="80" cy="96" r="1.75" fill="#ffffff" opacity="0.8"/>
  <path d="M 42,108 Q 28,115 22,125 Q 28,140 42,145" stroke="#4a3a28" stroke-width="1.5" fill="none" stroke-linecap="round"/>
  <path d="M 100,83 Q 97,103 102,123" stroke="#4a3a28" stroke-width="1.5" fill="none" opacity="0.5"/>
  <text x="200" y="242" text-anchor="middle" font-family="sans-serif" font-size="11" fill="#ffffff" opacity="0.5" font-weight="600">Seeteufel</text>
</svg>