<svg xmlns="http://www.w3.org/2000/svg" viewBox="0 0 400 250" width="400" height="250">
  <defs>
    <linearGradient id="bg" x1="0" y1="0" x2="0" y2="1">
      <stop offset="0%" stop-color="#2a3a3a"/>
      <stop offset="100%" stop-color="#182828"/>
    </linearGradient>
    <linearGradient id="bodyGrad" x1="0" y1="0" x2="0" y2="1">
      <stop offset="0%" stop-color="#6a6a5a"/>
      <stop offset="60%" stop-color="#4a4a3a"/>
      <stop offset="100%" stop-color="#b0b0a0"/>
    </linearGradient>
    <linearGradient id="finGrad" x1="0" y1="0" x2="0" y2="1">
      <stop offset="0%" stop-color="#6a6a5a"/>
      <stop offset="100%" stop-color="#4a4a3a"/>
    </linearGradient>
    <clipPath id="bodyClip">
      <path d="M 60,115 Q 50,105 55,90 Q 70,70 120,58 Q 180,48 250,55 Q 310,65 345,90 Q 358,105 358,125 Q 358,145 345,160 Q 310,185 250,195 Q 180,202 120,192 Q 70,180 55,160 Q 50,145 60,135 Z"/>
    </clipPath>
  </defs>

  <!-- Background -->
  <rect width="400" height="250" fill="url(#bg)" rx="8"/>

  <!-- Water shimmer -->
  <g opacity="0.08">
    <path d="M 0,180 Q 50,175 100,180 Q 150,185 200,180 Q 250,175 300,180 Q 350,185 400,180" stroke="#ffffff" stroke-width="1.5" fill="none"/>
    <path d="M 0,200 Q 50,195 100,200 Q 150,205 200,200 Q 250,195 300,200 Q 350,205 400,200" stroke="#ffffff" stroke-width="1" fill="none"/>
    <path d="M 0,220 Q 50,215 100,220 Q 150,225 200,220 Q 250,215 300,220 Q 350,225 400,220" stroke="#ffffff" stroke-width="0.8" fill="none"/>
  </g>
  <path d="M 352,100 Q 372,75 388,62 Q 382,88 378,105 L 378,145 Q 382,162 388,188 Q 372,175 352,150 Q 354,125 352,100 Z" fill="url(#finGrad)" opacity="0.85"/>
  <path d="M 80,62 Q 85,48 100,42 Q 150,32 220,30 Q 280,35 320,48 Q 340,58 345,70 Q 310,58 250,50 Q 180,45 120,50 Q 90,56 80,62 Z" fill="url(#finGrad)" opacity="0.85"/>
  <path d="M 60,115 Q 50,105 55,90 Q 70,70 120,58 Q 180,48 250,55 Q 310,65 345,90 Q 358,105 358,125 Q 358,145 345,160 Q 310,185 250,195 Q 180,202 120,192 Q 70,180 55,160 Q 50,145 60,135 Z" fill="url(#bodyGrad)" stroke="#4a4a3a" stroke-width="1"/>
  <g clip-path="url(#bodyClip)"><ellipse cx="84.49078556558426" cy="155.5033515478782" rx="10.66423722900893" ry="6.439887294851051" fill="#4a4a3a" opacity="0.3245686182176512" transform="rotate(20.517380265510134 84.49078556558426 155.5033515478782)"/><ellipse cx="295.2334883916319" cy="174.04963524302246" rx="7.917186300887474" ry="4.387525488761893" fill="#4a4a3a" opacity="0.2400156457313432" transform="rotate(-0.31694972067297655 295.2334883916319 174.04963524302246)"/><ellipse cx="287.8797692203208" cy="113.574726017564" rx="10.589160241393317" ry="5.165053254341166" fill="#4a4a3a" opacity="0.2388614745259737" transform="rotate(16.120872557535144 287.8797692203208 113.574726017564)"/><ellipse cx="133.6798514653813" cy="92.71637994150386" rx="9.144255433254747" ry="5.571775123966624" fill="#4a4a3a" opacity="0.27990546412950185" transform="rotate(-21.85683527541311 133.6798514653813 92.71637994150386)"/><ellipse cx="95.91685280359866" cy="130.76844121674114" rx="6.889357454655793" ry="2.200762141887049" fill="#4a4a3a" opacity="0.2979161511553247" transform="rotate(-7.964321418985715 95.91685280359866 130.76844121674114)"/><ellipse cx="146.70993974156633" cy="81.87820805169729" rx="3.166886664397466" ry="2.0032991889089096" fill="#4a4a3a" opacity="0.2190564182675957" transform="rotate(11.863322262364917 146.70993974156633 81.87820805169729)"/><ellipse cx="177.04549224794783" cy="136.63522762455176" rx="6.421455926887704" ry="6.8244851860691025" fill="#4a4a3a" opacity="0.27872350204115703" transform="rotate(1.3979307755496464 177.04549224794783 136.63522762455176)"/><ellipse cx="310.49525178579364" cy="86.7484804752547" rx="3.440609802491138" ry="3.805451783761482" fill="#4a4a3a" opacity="0.3311322917871956" transform="rotate(11.383468822244708 310.49525178579364 86.7484804752547)"/><ellipse cx="246.54105144627758" cy="71.63539067282723" rx="4.60423517691592" ry="2.493560530872837" fill="#4a4a3a" opacity="0.3842119159039809" transform="rotate(6.48460443537423 246.54105144627758 71.63539067282723)"/><ellipse cx="147.5300184348166" cy="162.84763038547865" rx="7.011496604459949" ry="4.3218346728588" fill="#4a4a3a" opacity="0.30068155437538996" transform="rotate(-4.864156627930058 147.5300184348166 162.84763038547865)"/><ellipse cx="191.11436695568105" cy="145.81770475773052" rx="4.958828897589499" ry="2.1644930399218496" fill="#4a4a3a" opacity="0.32031785666600965" transform="rotate(11.541110071755298 191.11436695568105 145.81770475773052)"/><ellipse cx="249.24317237682243" cy="77.50333773349665" rx="8.720900605916416" ry="5.439013414210921" fill="#4a4a3a" opacity="0.2613216945434704" transform="rotate(-19.68889593435555 249.24317237682243 77.50333773349665)"/><ellipse cx="285.41972383343455" cy="152.32894470082903" rx="6.797238458029466" ry="5.594185407539331" fill="#4a4a3a" opacity="0.31312084955147634" transform="rotate(-3.0561564984546443 285.41972383343455 152.32894470082903)"/><ellipse cx="98.82670292609356" cy="174.6535270465534" rx="9.938312745136571" ry="2.385045554128703" fill="#4a4a3a" opacity="0.2989409136661915" transform="rotate(-10.618692050530314 98.82670292609356 174.6535270465534)"/><ellipse cx="205.40772428580738" cy="75.25845101180373" rx="5.5638111678809805" ry="4.765100495060176" fill="#4a4a3a" opacity="0.3558928750522935" transform="rotate(-9.198266933225675 205.40772428580738 75.25845101180373)"/><ellipse cx="201.20955802585786" cy="70.18801255986604" rx="3.1299243162264982" ry="2.221045052249967" fill="#4a4a3a" opacity="0.3745471432872407" transform="rotate(26.74044477313651 201.20955802585786 70.18801255986604)"/><ellipse cx="90.49598168267913" cy="120.17795574266819" rx="8.877637639185377" ry="2.264076453965434" fill="#4a4a3a" opacity="0.38822663440317384" transform="rotate(-22.462285535647105 90.49598168267913 120.17795574266819)"/><ellipse cx="116.79684549253363" cy="129.29878361536203" rx="7.097738437793173" ry="2.1667202550962195" fill="#4a4a3a" opacity="0.20826973111803912" transform="rotate(-15.886843851651605 116.79684549253363 129.29878361536203)"/><ellipse cx="220.64138300552233" cy="152.49354951040812" rx="9.855268428656835" ry="2.344423924108783" fill="#4a4a3a" opacity="0.23823835794378498" transform="rotate(29.74806457052552 220.64138300552233 152.49354951040812)"/><ellipse cx="295.38416396512815" cy="119.02568641212122" rx="6.763022362433195" ry="5.057980888730931" fill="#4a4a3a" opacity="0.2882292408575204" transform="rotate(-21.18291529227959 295.38416396512815 119.02568641212122)"/></g>
  <path d="M 60,115 Q 50,105 55,90 Q 70,70 120,58 Q 180,48 250,55 Q 310,65 345,90 Q 358,105 358,125 Q 358,145 345,160 Q 310,185 250,195 Q 180,202 120,192 Q 70,180 55,160 Q 50,145 60,135 Z" fill="none" stroke="#6a6a5a" stroke-width="0.5" opacity="0.15"/>
  <path d="M 95,140 Q 75,155 70,172 Q 85,165 100,150 Z" fill="url(#finGrad)" opacity="0.75"/>
  <path d="M 90,190 Q 95,205 120,212 Q 180,220 250,215 Q 310,205 340,188 Q 310,195 250,200 Q 180,205 120,200 Q 95,196 90,190 Z" fill="url(#finGrad)" opacity="0.8"/>
  <path d="M 90,125 Q 150,122 220,125 Q 290,128 340,125" stroke="#6a6a5a" stroke-width="0.8" fill="none" opacity="0.3" stroke-dasharray="3,3"/>
  <circle cx="90" cy="95" r="9" fill="#1a1a1a"/>
  <circle cx="90" cy="95" r="6.3" fill="#2a3a2a"/>
  <circle cx="88" cy="93" r="2.25" fill="#ffffff" opacity="0.8"/>
  <path d="M 55,108 Q 42,112 38,120 Q 42,130 55,132" stroke="#4a4a3a" stroke-width="1.5" fill="none" stroke-linecap="round"/>
  <path d="M 108,80 Q 105,100 110,120" stroke="#4a4a3a" stroke-width="1.5" fill="none" opacity="0.5"/>
  <text x="200" y="242" text-anchor="middle" font-family="sans-serif" font-size="11" fill="#ffffff" opacity="0.5" font-weight="600">Steinbutt</text>
</svg>