<svg xmlns="http://www.w3.org/2000/svg" viewBox="0 0 400 250" width="400" height="250">
  <defs>
    <linearGradient id="bg" x1="0" y1="0" x2="0" y2="1">
      <stop offset="0%" stop-color="#2a3a2a"/>
      <stop offset="100%" stop-color="#1a2818"/>
    </linearGradient>
    <linearGradient id="bodyGrad" x1="0" y1="0" x2="0" y2="1">
      <stop offset="0%" stop-color="#4a5a4a"/>
      <stop offset="60%" stop-color="#2a3a2a"/>
      <stop offset="100%" stop-color="#a0a890"/>
    </linearGradient>
    <linearGradient id="finGrad" x1="0" y1="0" x2="0" y2="1">
      <stop offset="0%" stop-color="#5a6a5a"/>
      <stop offset="100%" stop-color="#2a3a2a"/>
    </linearGradient>
    <clipPath id="bodyClip">
      <path d="M 50,120 Q 35,105 40,88 Q 55,60 110,48 Q 180,38 260,48 Q 330,62 355,95 Q 365,112 365,128 Q 365,145 355,165 Q 330,198 260,212 Q 180,222 110,212 Q 55,200 40,172 Q 35,155 50,140 Z"/>
    </clipPath>
  </defs>

  <!-- Background -->
  <rect width="400" height="250" fill="url(#bg)" rx="8"/>

  <!-- Water shimmer -->
  <g opacity="0.08">
    <path d="M 0,180 Q 50,175 100,180 Q 150,185 200,180 Q 250,175 300,180 Q 350,185 400,180" stroke="#ffffff" stroke-width="1.5" fill="none"/>
    <path d="M 0,200 Q 50,195 100,200 Q 150,205 200,200 Q 250,195 300,200 Q 350,205 400,200" stroke="#ffffff" stroke-width="1" fill="none"/>
    <path d="M 0,220 Q 50,215 100,220 Q 150,225 200,220 Q 250,215 300,220 Q 350,225 400,220" stroke="#ffffff" stroke-width="0.8" fill="none"/>
  </g>
  <path d="M 360,105 Q 378,72 392,58 Q 386,88 382,108 L 382,148 Q 386,172 392,202 Q 378,188 360,155 Q 362,130 360,105 Z" fill="url(#finGrad)" opacity="0.85"/>
  <path d="M 160,48 Q 168,22 180,18 Q 192,22 198,38 Q 195,42 185,45 Q 175,46 165,48 Z" fill="url(#finGrad)" opacity="0.85"/>
  <path d="M 50,120 Q 35,105 40,88 Q 55,60 110,48 Q 180,38 260,48 Q 330,62 355,95 Q 365,112 365,128 Q 365,145 355,165 Q 330,198 260,212 Q 180,222 110,212 Q 55,200 40,172 Q 35,155 50,140 Z" fill="url(#bodyGrad)" stroke="#2a3a2a" stroke-width="1"/>
  <g clip-path="url(#bodyClip)"><ellipse cx="85.15865870525461" cy="77.90950256033186" rx="8.885498686678417" ry="3.9071118896945016" fill="#3a4a3a" opacity="0.22766282545418312" transform="rotate(11.040322273186476 85.15865870525461 77.90950256033186)"/><ellipse cx="82.53359482706371" cy="117.23721893050646" rx="7.976664483956869" ry="5.102315916849668" fill="#3a4a3a" opacity="0.2362416788898678" transform="rotate(28.604845704242443 82.53359482706371 117.23721893050646)"/><ellipse cx="266.0368748892339" cy="117.56732053555446" rx="4.7986741710510525" ry="4.8459035012291025" fill="#3a4a3a" opacity="0.2417829660001355" transform="rotate(-2.7437437924623325 266.0368748892339 117.56732053555446)"/><ellipse cx="181.17696287413472" cy="155.63281693588925" rx="9.105976521067154" ry="4.232946433341555" fill="#3a4a3a" opacity="0.37141631640203965" transform="rotate(-9.291422775603124 181.17696287413472 155.63281693588925)"/><ellipse cx="304.82171323059396" cy="74.63332550116566" rx="10.028539679691514" ry="4.45928084430046" fill="#3a4a3a" opacity="0.3311857516794501" transform="rotate(23.14149299830774 304.82171323059396 74.63332550116566)"/><ellipse cx="297.81241443147644" cy="135.93582194134723" rx="7.498594279667555" ry="2.3292381911550173" fill="#3a4a3a" opacity="0.3993682474013165" transform="rotate(29.36217837058186 297.81241443147644 135.93582194134723)"/><ellipse cx="151.3623325240135" cy="138.44500658500817" rx="10.488156545128117" ry="6.220377599721031" fill="#3a4a3a" opacity="0.29905091014323415" transform="rotate(-24.79075175994901 151.3623325240135 138.44500658500817)"/><ellipse cx="201.65106518516671" cy="148.54822209738094" rx="6.643341316275424" ry="3.49640951020071" fill="#3a4a3a" opacity="0.30650305006167133" transform="rotate(-1.1831635729371044 201.65106518516671 148.54822209738094)"/><ellipse cx="84.78238223032946" cy="173.28648668630927" rx="8.170745194178004" ry="4.227491231411054" fill="#3a4a3a" opacity="0.23069453092285055" transform="rotate(-12.351335640020743 84.78238223032946 173.28648668630927)"/><ellipse cx="104.61625467278473" cy="120.86213551714829" rx="6.444583900816878" ry="5.03554386613326" fill="#3a4a3a" opacity="0.3835354357717473" transform="rotate(13.314648529977681 104.61625467278473 120.86213551714829)"/><ellipse cx="311.80064142344213" cy="97.32964136117056" rx="4.529958695850395" ry="4.174369916865913" fill="#3a4a3a" opacity="0.2893116278541138" transform="rotate(6.331976820492443 311.80064142344213 97.32964136117056)"/><ellipse cx="314.892904592225" cy="72.27139035359443" rx="8.454940145057531" ry="5.1610191104104395" fill="#3a4a3a" opacity="0.386982938647391" transform="rotate(11.314609016724546 314.892904592225 72.27139035359443)"/><ellipse cx="183.69703846580927" cy="146.63516719654965" rx="8.228949053533142" ry="6.235200169185202" fill="#3a4a3a" opacity="0.28888156546767124" transform="rotate(19.11275246987651 183.69703846580927 146.63516719654965)"/><ellipse cx="158.76639235385778" cy="132.20627536216915" rx="5.395441563424389" ry="5.45228220484862" fill="#3a4a3a" opacity="0.2834982296941135" transform="rotate(16.229360973211193 158.76639235385778 132.20627536216915)"/><ellipse cx="284.5550287440815" cy="154.1906601081339" rx="4.116060474547565" ry="6.40323591505091" fill="#3a4a3a" opacity="0.2602339878553781" transform="rotate(-20.1436720490303 284.5550287440815 154.1906601081339)"/><ellipse cx="92.86743402598847" cy="89.52543433038434" rx="5.873056870787442" ry="4.055019214087875" fill="#3a4a3a" opacity="0.36480276288532487" transform="rotate(-4.4022643114873645 92.86743402598847 89.52543433038434)"/><ellipse cx="283.7736530549023" cy="162.04623249325536" rx="6.598337636462102" ry="6.44165305812121" fill="#3a4a3a" opacity="0.29229256868641706" transform="rotate(-1.8258123800222315 283.7736530549023 162.04623249325536)"/><ellipse cx="238.13279107930208" cy="76.57851292847782" rx="3.0440603738417336" ry="3.5057160034492294" fill="#3a4a3a" opacity="0.2640785960924999" transform="rotate(-8.247826587408884 238.13279107930208 76.57851292847782)"/><ellipse cx="131.2083974852312" cy="95.44506251562366" rx="4.936924160744889" ry="5.522256432571169" fill="#3a4a3a" opacity="0.3382811498734791" transform="rotate(7.889153287806373 131.2083974852312 95.44506251562366)"/><ellipse cx="137.9915382585723" cy="155.2381215987732" rx="5.097129555871017" ry="6.978047897211422" fill="#3a4a3a" opacity="0.22941924560133836" transform="rotate(19.83077331900565 137.9915382585723 155.2381215987732)"/></g>
  <path d="M 50,120 Q 35,105 40,88 Q 55,60 110,48 Q 180,38 260,48 Q 330,62 355,95 Q 365,112 365,128 Q 365,145 355,165 Q 330,198 260,212 Q 180,222 110,212 Q 55,200 40,172 Q 35,155 50,140 Z" fill="none" stroke="#4a5a4a" stroke-width="0.5" opacity="0.15"/>
  <path d="M 95,150 Q 68,175 60,200 Q 80,190 100,168 Z" fill="url(#finGrad)" opacity="0.75"/>
  <path d="M 155,210 Q 158,228 168,235 Q 176,228 172,215 Z" fill="url(#finGrad)" opacity="0.75"/>
  <path d="M 180,218 Q 185,235 210,240 Q 260,242 310,235 Q 340,225 352,210 Q 330,218 290,225 Q 240,228 200,222 Z" fill="url(#finGrad)" opacity="0.8"/>
  <path d="M 45,105 Q 20,85 5,75 Q 10,70 30,80" stroke="#2a3a2a" stroke-width="2" fill="none" stroke-linecap="round"/>
  <path d="M 48,100 Q 25,78 12,65 Q 18,62 35,75" stroke="#2a3a2a" stroke-width="2" fill="none" stroke-linecap="round"/>
  <path d="M 42,140 Q 30,155 25,165" stroke="#2a3a2a" stroke-width="2" fill="none" stroke-linecap="round"/>
  <path d="M 45,145 Q 35,158 32,168" stroke="#2a3a2a" stroke-width="2" fill="none" stroke-linecap="round"/>
  <path d="M 90,125 Q 150,122 220,125 Q 290,128 340,125" stroke="#4a5a4a" stroke-width="0.8" fill="none" opacity="0.3" stroke-dasharray="3,3"/>
  <circle cx="82" cy="98" r="7" fill="#1a1a1a"/>
  <circle cx="82" cy="98" r="4.8999999999999995" fill="#2a3a2a"/>
  <circle cx="80" cy="96" r="1.75" fill="#ffffff" opacity="0.8"/>
  <path d="M 42,108 Q 28,115 22,125 Q 28,140 42,145" stroke="#2a3a2a" stroke-width="1.5" fill="none" stroke-linecap="round"/>
  <path d="M 100,83 Q 97,103 102,123" stroke="#2a3a2a" stroke-width="1.5" fill="none" opacity="0.5"/>
  <text x="200" y="242" text-anchor="middle" font-family="sans-serif" font-size="11" fill="#ffffff" opacity="0.5" font-weight="600">Wels</text>
</svg>